<?xml version="1.0" encoding="UTF-8" standalone="no"?>
<svg
   version="1.1"
   width="800"
   height="800"
   id="svg37"
   xmlns:xlink="http://www.w3.org/1999/xlink"
   xmlns="http://www.w3.org/2000/svg"
   xmlns:svg="http://www.w3.org/2000/svg"
   xmlns:rdf="http://www.w3.org/1999/02/22-rdf-syntax-ns#"
   xmlns:cc="http://creativecommons.org/ns#"
   xmlns:dc="http://purl.org/dc/elements/1.1/">
  <metadata
     id="metadata2">
    <rdf:RDF>
      <cc:Work
         rdf:about="">
        <dc:format>image/svg+xml</dc:format>
        <dc:type
           rdf:resource="http://purl.org/dc/dcmitype/StillImage" />
      </cc:Work>
    </rdf:RDF>
  </metadata>
  <defs
     id="defs20">
    <linearGradient
       id="L1"
       style="stop-color:#000000">
      <stop
         offset="0"
         style="stop-opacity:0"
         id="stop4" />
      <stop
         offset="0.49"
         style="stop-opacity:0.02"
         id="stop6" />
      <stop
         offset="0.57"
         style="stop-opacity:0.04"
         id="stop8" />
      <stop
         offset="0.64"
         style="stop-opacity:0.07"
         id="stop10" />
      <stop
         offset="0.7"
         style="stop-opacity:0.15"
         id="stop12" />
      <stop
         offset="0.73"
         style="stop-opacity:0.21"
         id="stop14" />
      <stop
         offset="1"
         style="stop-opacity:0.55"
         id="stop16" />
    </linearGradient>
    <radialGradient
       id="R1"
       xlink:href="#L1"
       cx="99.958"
       cy="139.375"
       r="45.07"
       fx="99.958"
       fy="139.375"
       gradientUnits="userSpaceOnUse"
       gradientTransform="matrix(-3.098,7.94,-7.191,-2.806,1702.1091,-111.04296)" />
  </defs>
  <g
     id="g893">
    <g
       id="g881">
      <path
         style="fill:none;fill-opacity:1;stroke:#4d4d4d;stroke-width:16;stroke-linecap:round;stroke-dasharray:none"
         d="M 83.657877,83.657873 228.43528,228.43527"
         id="path5793" />
      <path
         style="fill:#806600;fill-opacity:1;stroke:none;stroke-width:0.824463"
         id="path5665"
         d="m 118.76311,-246.73729 a 118.76311,120.17196 0 0 1 -59.381558,104.07197 118.76311,120.17196 0 0 1 -118.763109,0 118.76311,120.17196 0 0 1 -59.381553,-104.07197 H -4.1651961e-7 Z"
         transform="rotate(135)" />
    </g>
    <g
       id="g877">
      <path
         style="fill:none;fill-opacity:1;stroke:#4d4d4d;stroke-width:16;stroke-linecap:round;stroke-dasharray:none"
         d="M 716.34212,83.657868 571.56472,228.43527"
         id="path5793-7" />
      <path
         style="fill:#806600;fill-opacity:1;stroke:none;stroke-width:0.824;stroke-dasharray:none"
         id="path5665-5"
         d="m 684.44853,318.94812 a 118.76311,120.17196 0 0 1 -59.38155,104.07197 118.76311,120.17196 0 0 1 -118.76311,0 118.76311,120.17196 0 0 1 -59.38155,-104.07197 h 118.7631 z"
         transform="matrix(0.70710678,0.70710678,0.70710678,-0.70710678,0,0)" />
    </g>
    <path
       id="rect913"
       style="fill:none;stroke:#4d4d4d;stroke-width:32;stroke-linecap:round;stroke-dasharray:none"
       d="M 180.29463,706.12881 400,486.42343 619.70537,706.1288" />
    <circle
       style="fill:#806600;fill-opacity:1;stroke-width:0.839394"
       id="path2611"
       cx="400"
       cy="400"
       r="290.10147" />
    <path
       id="atmosphere"
       style="fill:#005b99;fill-opacity:1;stroke:none;stroke-width:1.5;stroke-linecap:butt;stroke-linejoin:miter;stroke-miterlimit:4;stroke-dasharray:none;stroke-dashoffset:0;stroke-opacity:1"
       d="m 674.19374,400.01934 c 0.423,-79.994 -36.484,-159.163 -98.107,-210.2281 -61.305,-51.7875 -146.281,-74.6131 -225.157,-59.4124 -84.018,14.4201 -159.213,71.1493 -196.5179,147.7695 -34.6999,68.85 -38.0642,152.549 -8.8359,223.939 30.5193,78.0243 99.2682,139.7123 180.065,161.7843 77.7402,22.6022 165.118,7.7207 231.251,-38.9986 66.603,-45.8389 110.714,-122.8043 116.387,-203.5263 0.7196,-6.5319 0.9073,-13.1826 0.914,-19.8041 z" />
    <path
       id="hemisphere-lands"
       style="fill:#72b81e;fill-opacity:1;stroke:none;stroke-width:0.6;stroke-linecap:butt;stroke-linejoin:miter;stroke-miterlimit:4;stroke-dasharray:none;stroke-dashoffset:0;stroke-opacity:1"
       d="m 367.56409,126.70919 -1.23776,0.28564 h 0.63475 z m -1.23776,0.28564 h -1.20601 l -0.53954,0.28563 z m 5.49057,-0.28564 -1.80903,0.28564 h 0.60301 l -1.52339,0.31737 0.28563,-0.31737 -0.98386,0.22216 -0.22215,-0.22216 -0.79345,0.31737 h -0.12694 l -1.80904,0.28564 1.5234,-0.28564 -3.68154,0.60301 0.63475,-0.31737 1.52339,-0.28564 -2.44377,0.28564 -1.33297,0.15868 1.01559,-0.15868 1.71382,-0.28564 h -1.71382 l -0.603,0.28564 h -0.60302 -0.31736 l -0.28564,0.15868 -0.31738,0.0317 v -0.19042 l -0.57127,0.31737 h -0.0635 -0.28564 -0.92039 l -0.44432,0.2539 0.95212,-0.15869 -1.11081,0.22217 0.12695,-0.0635 -0.25389,0.0317 -0.12695,0.0317 h -0.0318 -0.31738 -0.60301 l -1.23776,0.28563 h -0.60301 l -1.52339,0.31738 h 0.31738 0.603 l 1.84077,-0.31738 0.98386,-0.19042 -0.22217,0.0952 v 0.0317 h -0.0317 l -0.44433,0.0635 h -0.0318 -0.2539 l -0.0952,0.0635 h -0.0317 l -1.71382,0.2539 -1.52339,0.28563 0.92039,-0.28563 -1.04734,0.19042 0.44432,-0.19042 h -0.31737 l -1.84077,0.28563 h 0.31737 l -0.31737,0.15869 0.92039,-0.15869 h 0.31737 l -1.39644,0.2539 0.15868,-0.0952 -0.88865,0.15869 h 0.31738 l -1.42819,0.2539 0.47607,-0.2539 -1.5234,0.31737 -1.26949,0.28564 h -0.2539 l -0.19043,0.0952 -1.01559,0.22216 -0.0635,0.0317 -1.14255,0.2539 h -0.63474 l -0.22216,0.0952 -2.50725,0.53954 h 0.31736 l -0.92038,0.28563 h -0.31738 l -0.28562,0.31738 h -0.63476 l -1.80903,0.28563 -1.23776,0.31738 -1.52339,0.31737 -0.60301,0.28564 1.5234,-0.28564 -0.92039,0.28564 2.15815,-0.60301 -0.63476,0.31737 -0.88864,0.28564 -4.88756,1.84077 -2.44378,0.28563 h 1.23776 l -5.20493,1.52339 -1.80903,0.92039 h -0.60301 l -2.15814,0.60301 1.42818,-0.22216 h 0.0317 l 0.38086,-0.0635 -0.7617,0.22216 -0.12695,0.0317 -2.47552,0.66648 v 0.28564 l 1.5234,-0.60301 h 0.0317 0.88865 l -2.1264,0.60301 h 1.20602 l -2.12641,0.31737 0.31737,0.28564 h -0.31737 l -2.1264,1.23776 0.31737,-0.92038 -1.23775,0.31737 -1.5234,0.88865 h 1.23776 l -3.96718,1.52339 h 0.60301 l -1.42818,0.28563 -1.61861,0.95212 -0.603,-0.31737 -2.12641,0.60301 2.41203,-0.28564 -1.52338,0.28564 -0.60301,0.63475 -2.88811,0.60301 2.28509,-0.60301 -0.92038,0.28563 1.5234,-0.28563 -0.60302,-0.63475 -0.31737,0.63475 -0.28563,-0.31738 -2.50726,1.07907 -0.53953,0.12695 1.20602,0.31738 -2.44378,0.31737 v 0.60301 l -1.80903,0.28564 0.22215,0.22216 2.82464,-0.82517 v 0.31737 l -4.28455,1.20602 -2.12641,0.60301 -1.07907,0.82517 -0.44433,0.0952 h 0.60302 l -1.77729,0.88865 -0.95212,0.34911 -1.84078,1.20602 3.04679,-1.20602 1.84078,-0.92038 -2.44378,1.80903 v -0.60301 l -0.28564,0.31737 -2.15815,0.60301 h 1.23776 l -1.52339,0.31738 v 0.28563 l -1.5234,0.31738 0.60302,0.28563 -1.20602,0.31738 h 0.603 l -0.92038,0.31737 0.31738,0.28564 -2.15815,0.92038 1.84077,-0.60301 -2.72941,1.20602 v 0.31737 l -1.5234,0.92039 1.20602,-0.31738 -1.84076,0.60301 1.52339,-0.28563 -1.52339,0.60301 h 0.31736 l -0.92038,0.28563 h 0.92038 l -1.52339,0.31738 h 0.92039 l -1.52339,1.20602 3.96717,-0.88865 -2.76116,1.20602 1.84078,-0.60301 -2.44379,0.92038 1.52339,-0.31737 -1.20601,0.92038 1.20601,-0.60301 -2.12639,1.52339 1.80903,-0.92038 0.31736,0.60301 0.31738,-1.20602 h 1.80903 v -0.63475 l 1.84077,-0.60301 h 0.28563 v -0.60301 l 1.5234,-0.31737 -0.28564,-0.28564 h 1.5234 l -0.60301,-0.31737 1.80903,-0.60301 0.92039,-0.92039 0.31737,0.31738 0.28564,-0.92039 1.84076,-0.31737 1.20602,-0.88865 v 0.60301 l 0.92039,-0.92038 0.31737,0.31737 v -0.31737 l 1.52339,-0.31737 v -0.60301 l 0.60302,0.31737 1.52339,-0.92038 -0.60301,-0.31738 h 1.52339 l 2.12641,-1.80903 0.28564,0.28564 1.84076,-0.60301 0.60302,-0.28564 2.12639,-0.31737 3.36417,-1.52339 0.31738,0.31737 -1.07907,0.44432 -0.44433,0.44433 2.72942,-0.60301 0.60301,-0.60301 0.92038,0.31737 6.69659,-2.76115 2.12641,-0.28563 1.84076,-1.23776 -0.92038,0.92038 h 2.12641 l 0.92038,-0.60301 v 0.28564 l 5.17319,-0.60301 9.14037,-2.44378 h 0.63474 l -3.04678,-0.60302 -3.36417,0.60302 -0.60301,0.31737 -0.31737,-0.31737 h -0.60301 l 3.6498,-0.60302 h -1.52339 -1.5234 l 3.6498,-1.20602 0.63475,0.28564 2.41204,-0.28564 -2.41204,-0.60301 h 1.80902 l -0.28562,-0.63474 2.12639,0.92038 -1.23775,1.52339 2.44377,-0.60301 -1.20602,0.60301 h 1.20602 l 0.60302,-0.92038 1.84077,-0.60301 h -0.92039 l 1.52339,-0.60301 -1.80903,0.31737 1.80903,-0.63475 -0.92038,-0.60301 -1.80903,0.60301 0.92038,-0.60301 h 0.88865 0.31738 v -0.60301 l -2.12641,0.60301 v -0.60301 l 3.33243,-0.31737 H 344.11 l 1.5234,-0.28564 v -0.31737 l 0.28563,0.31737 2.12641,-0.31737 0.31737,-0.60301 v 0.60301 l 0.98386,-0.22216 0.53953,0.53953 2.72943,-0.31737 1.23775,-0.28564 -0.92039,-0.31737 -1.52339,0.31737 0.60301,-0.31737 2.1264,-0.92039 1.23777,0.60301 1.52338,-0.28563 h -0.92038 l -0.603,-0.31738 1.52338,-0.60301 h 0.28564 l -0.603,-0.31737 1.23776,0.31737 h 0.28563 l 1.84077,-0.60301 h -0.60301 l -1.23776,-0.31737 2.44378,-0.28564 h -1.5234 l 0.60302,-0.63475 h 2.76115 1.52339 l 1.20602,-0.60301 h -0.92039 l -0.603,-0.28563 h 1.20602 0.92038 l -0.28564,-0.31738 h -0.31737 l -1.84077,0.31738 1.5234,-0.63475 3.68153,-0.60301 4.57019,-0.92038 h -2.15814 -0.60302 l 0.92038,-0.28564 h 0.60302 0.92038 l 0.0952,-0.0952 2.6342,-0.22216 h -2.41204 l 4.2528,-0.28564 3.04679,-0.63475 h -1.84077 l -2.1264,0.31738 h -1.20602 l -5.17319,0.60301 5.7762,-0.92039 -4.57019,0.31738 2.72943,-0.31738 h -4.25281 l 1.84076,-0.28563 h 3.04679 l 3.33243,-0.31738 h -1.80903 l 1.52339,-0.28563 -5.49057,0.28563 2.44378,-0.28563 -3.36417,0.28563 0.60302,-0.28563 z m -23.7713,9.426 -1.80903,0.31737 2.44378,0.28564 z m -12.7902,4.57018 3.64979,-0.28564 0.63476,-0.63474 z m -25.739,7.77566 0.15868,-0.15869 -0.28563,0.22216 0.12695,-0.0635 z m -0.12695,0.0635 -0.95213,0.38085 v 0.31737 z m -11.6794,-0.92038 -0.28564,0.0952 h 0.34912 l -0.0635,-0.0952 z m -0.28564,0.0952 h -0.53954 l -0.22215,0.22216 z m -0.76169,0.22216 -1.30124,0.38085 1.20603,-0.28564 z m 144.30999,-20.0263 3.96717,0.92038 1.5234,0.28564 -0.28564,-0.28564 -2.15814,-0.31737 z m 5.49057,1.20602 h -0.92038 l 1.84076,0.31737 h 0.31738 l -0.92038,-0.31737 z m -22.53419,-0.88864 -0.603,0.60301 1.809,-0.31737 z m 7.01396,0 -0.92039,0.28564 h -0.31737 l 1.5234,0.31737 z m -28.9445,0.28564 v 0.31737 h -1.5234 l 0.88864,0.60301 1.23777,-0.31737 h 1.52338 l -1.52338,0.31737 3.33242,0.31737 2.44378,-0.63474 -2.12641,-0.28564 h -1.20601 l -0.31738,-0.31737 -0.31738,0.60301 -1.80902,-0.2539 v -0.0317 h -0.31738 l -0.28563,-0.31738 z m 44.46409,0.31737 1.84077,0.60301 3.33242,0.60301 h 0.92039 l -0.92039,-0.28564 h -0.41259 l -1.30122,-0.28563 -0.0952,-0.0317 h -0.0635 l -1.45992,-0.31737 -1.52339,-0.28564 0.92038,0.28564 -1.23776,-0.28564 z m -49.03429,0.28564 -3.04679,0.31737 1.80903,1.20602 2.12641,-0.60301 v 0.31737 l 1.23776,-0.31737 -1.5234,-0.92038 -0.60301,0.63474 -1.5234,-0.31737 z m 2.12641,0.92038 0.92038,0.31737 -3.96717,0.60301 0.28564,0.31738 3.04679,-0.31738 -2.12641,0.31738 1.23775,0.28563 -2.15813,-0.28563 3.04679,1.20602 2.15814,-2.1264 h 0.88864 l 1.23775,-0.31738 -1.52338,-0.28563 -1.5234,-0.31738 -0.60301,0.31738 -0.92038,-0.63475 z m 3.33242,0.31737 0.92039,0.28564 0.603,-0.28564 z m 0.92039,0.28564 0.31736,0.92038 1.5234,-0.28563 0.28564,0.28563 1.23775,-0.28563 -1.52339,-0.63475 z m 46.62219,-1.20602 1.80903,0.44432 0.15869,0.0317 4.44324,1.04733 -2.15815,-0.60301 -1.5234,-0.31737 -2.72941,-0.60301 z m 7.93435,1.84077 5.45883,1.20602 h -0.28564 l 1.11081,0.31737 h -0.19043 l 0.57128,0.0952 0.63474,0.19042 -1.20602,-0.28564 h -0.31736 l 0.92038,0.28564 1.20602,0.92039 2.12641,0.60301 -1.5234,-0.28564 5.20493,1.52339 -2.44378,0.28564 4.85582,1.52339 3.6498,0.92038 h -0.60301 l -1.42818,-0.22216 -0.0952,-0.0952 h -0.603 l -2.44379,-0.60301 v 0.31737 l 1.84077,0.60301 h -1.65034 l -4.7606,-1.52339 2.76115,0.92039 1.52339,1.20602 3.96718,1.23776 2.12639,0.88864 2.72942,1.52339 1.84077,-0.28563 2.72941,0.60301 3.04679,1.20602 1.23776,0.92038 2.12641,0.60301 -2.44379,-0.60301 -5.17319,-2.1264 -0.92038,0.31737 3.96718,1.80903 2.72941,3.04679 -4.85582,-0.92038 2.12641,-0.60301 -3.64981,-2.72941 -3.04678,-0.92038 -3.68154,-1.84077 -3.33243,-1.20602 -3.04678,-0.92039 -3.64981,-1.80903 -1.84077,-0.31737 h -1.84076 l 3.68153,1.84077 0.28564,0.88864 3.64981,1.52339 1.84076,0.92039 h 1.20602 l 3.36416,0.92038 1.84078,1.52339 -6.72834,-1.84077 h 1.23776 l -8.85472,-1.20602 v 0.60302 l 3.68153,1.23776 h -1.23776 l 0.31738,0.28563 0.603,0.60301 -3.04679,-1.20602 -0.92038,0.60301 h -2.72941 l 0.60301,0.92039 h -1.20603 l -1.23775,0.92038 5.1732,3.96717 h 3.36415 l -3.36415,0.28564 -5.45884,-4.25281 1.52339,-0.92039 h -1.23775 l -1.20602,-1.20602 0.92038,-0.31737 h -0.92038 l -0.31738,1.20602 -0.92038,-0.60301 -3.93543,1.23776 1.52339,0.60301 h -1.84077 l 1.20602,1.20602 -2.41204,0.31737 -3.04679,-1.23776 1.80904,-0.60301 -0.92039,-0.60301 -6.09357,-0.92038 2.15813,0.60301 4.57019,4.28455 -4.28455,-0.92039 -1.80903,0.92039 -0.63474,0.60301 -0.28564,0.31737 1.20602,0.88865 1.84077,1.23776 -0.92039,-0.31737 -3.36416,-0.28564 -0.60301,0.28564 0.31737,-0.60301 -3.36415,-0.60302 v 0.92039 l 3.64979,0.88865 -0.60301,1.23776 -6.09357,-1.52339 -2.1264,-1.84077 0.603,-0.92039 -3.96717,-0.88864 0.92039,-0.31738 -3.96718,-1.20602 14.34529,1.80903 0.88865,-0.60301 1.23776,-1.20602 -3.6498,-1.52339 -0.63474,-0.31737 -9.14037,-2.12641 h -2.72941 l -0.31738,0.92038 v -0.92038 h -2.1264 l -0.60301,-0.60301 h 1.84077 l -2.15814,-0.31738 -0.88865,0.60301 -1.84077,-0.60301 -0.92039,0.31738 -1.52339,-0.63475 -0.60301,-0.28564 2.72942,0.28564 0.92038,-0.60301 -3.6498,-0.60301 -1.20602,0.60301 0.60301,-0.92039 -1.52339,-0.28563 -0.31738,1.20602 h -0.92038 l -0.28564,-0.92039 -1.52339,1.52339 0.60301,-1.20602 -2.12641,-0.31737 -1.23776,1.52339 h -0.28563 l -3.04679,-0.28564 0.60301,0.28564 0.60301,0.63475 -1.52339,-0.63475 -1.80903,1.23776 h -0.31738 l 0.31738,-0.31737 0.28563,-0.92039 -0.60301,0.63475 -0.31738,0.60301 v -0.92038 l -1.20602,0.31737 0.92039,0.88865 -2.44378,-0.60301 -0.603,1.52339 -2.12641,0.31737 h -0.31738 l 0.31738,1.20602 -0.92038,-0.92038 -1.23776,0.31737 0.92038,0.31738 h -1.80903 l 1.80903,0.60301 -2.72941,0.60301 2.12639,0.31737 -3.96717,0.28564 0.92039,0.31737 -1.68208,1.11081 -1.04734,0.0952 0.88865,0.60301 -0.88865,-0.28564 -1.52339,1.52339 1.80903,-0.31737 -3.33243,0.92039 h 1.80903 l -1.80903,0.31737 0.88865,0.60301 -1.52339,0.28564 -0.28564,-0.60301 -3.36416,2.1264 h 0.31737 1.52339 l 2.12641,-1.20602 -1.20601,1.52339 -2.44379,0.31737 v -0.63475 l -2.76115,0.31738 v 1.52339 l -1.5234,-0.60302 1.23776,0.92039 -1.45992,-0.28564 -3.71327,0.28564 0.88865,0.60301 -0.60301,0.60301 -1.20602,-0.31737 0.603,0.31737 -2.44377,-0.31737 v 0.63474 l -0.60302,0.88865 h 1.5234 l -1.84076,0.31737 h 1.52339 l -1.20603,0.60301 3.04679,-0.28563 0.60302,-0.31738 1.23776,0.60301 0.60301,-0.92038 0.28563,0.63475 -1.80903,0.88864 -0.60301,-0.60301 -3.96717,0.31738 1.20602,0.28563 h -1.5234 l 0.60302,0.63475 1.23775,-0.31737 -1.84077,0.92038 0.60302,0.60301 0.92038,-0.60301 -0.92038,1.20602 4.28454,-1.52339 -5.49057,2.12641 0.92039,0.92039 2.44377,-0.92039 -2.15813,1.23776 h 1.84076 l -0.92038,0.60301 -1.5234,-0.60301 -0.28564,1.20602 3.04679,1.52339 3.0468,-0.28563 3.64979,-2.44378 h 2.12641 l 1.20602,-2.12641 0.63475,3.93544 1.20602,-0.28564 -0.60302,1.20602 1.20602,-0.92038 -0.92038,1.52339 2.76115,3.04679 -1.23775,0.63474 0.63474,2.41204 h 3.6498 l 1.5234,-1.80903 h 3.04679 l 2.44378,-3.36416 -0.63475,-2.72941 h 1.23776 l -1.84077,-0.31737 3.36417,-0.60301 0.28562,-0.92038 0.63476,0.92038 1.80903,-1.20602 -1.5234,-0.31737 2.44378,-0.60301 -2.72941,-2.1264 -1.84078,-0.31738 1.20602,-5.17319 0.92039,0.60301 3.96717,-1.84077 1.20602,-0.28563 1.84077,-1.52339 -1.20601,-1.84077 1.20601,0.31737 -0.31737,-1.23776 1.52339,0.63475 0.31738,-0.92038 3.64979,0.28563 2.44379,1.52339 -8.21999,4.88756 2.12641,2.72941 -0.60301,2.15814 2.72941,0.88865 1.23776,-0.28564 -0.31737,1.20602 12.7902,-2.12641 0.31737,0.92039 4.57019,0.92038 -5.17319,0.28564 -0.31738,0.92038 -5.49057,-0.60301 -4.85582,1.20602 0.88865,2.1264 h 2.15814 v 2.76115 l -1.84076,0.92038 -3.04679,-2.15814 -2.12641,0.31738 -1.52339,2.72941 1.20601,4.28455 h -2.1264 l 1.20602,-2.1264 -1.20602,1.80903 -1.52339,0.31737 v 0.60301 0.31738 h 0.31738 0.88864 l -0.88864,0.28563 -1.84078,0.92039 1.20602,-1.20602 -2.72941,0.88864 -2.44378,-1.52339 -9.14037,2.44378 -0.28563,1.23776 -4.28455,-2.44378 -6.09357,1.20602 0.92038,-1.20602 -2.72941,0.28564 -1.84078,-1.52339 0.92038,-2.1264 3.96719,-2.12641 -2.15815,-0.60301 1.84077,-2.76115 -5.49057,1.52339 -2.12641,6.41095 0.92039,-0.31737 0.92039,1.23776 -1.5234,0.28563 3.04679,2.15814 -3.04679,-0.92038 -0.63474,1.52339 -1.20603,-0.92038 -2.72942,0.31737 0.88866,0.88865 -4.25281,-0.28564 -1.84077,0.92038 0.92038,1.20602 -1.80904,0.92039 -0.92038,-1.84077 -2.76115,2.76115 1.5234,0.88864 -3.6498,0.31738 2.1264,0.60301 -8.21998,1.52339 -0.28564,2.12641 -1.23775,0.63475 -4.57019,2.12641 -5.49057,-1.52339 0.63475,3.6498 -4.28454,0.31737 -0.60301,-1.23776 -5.49057,1.23776 1.52339,0.88865 -1.52339,-0.28564 0.31737,1.52339 5.49057,1.20602 0.60301,3.04679 2.12641,0.60301 -1.20602,2.15814 0.28563,0.60301 -3.96718,7.01396 h -17.3603 l -1.52339,-1.23776 -6.09357,2.76115 1.23776,2.41204 -3.96718,7.93435 -3.96718,4.88755 2.12641,-0.63474 -1.80903,2.15814 h 1.20602 l -2.1264,5.1732 7.61697,-0.92039 3.04679,4.88756 4.85582,-2.76116 h 8.25172 l 3.33242,-3.04678 2.76116,-0.28565 1.20602,-2.76114 2.12641,-0.92038 0.92038,-0.60302 -0.60302,-0.60301 -0.603,-0.92038 0.603,-2.12641 1.20603,-1.20602 3.96717,-3.68154 8.53736,-3.04679 v -3.33242 l 1.52339,-1.5234 2.72942,-0.92039 6.69658,1.84077 9.77511,-4.88756 4.57019,1.52339 2.41204,5.49057 16.1543,8.53736 1.84077,4.57019 -2.12641,3.04678 1.5234,0.28565 2.12641,-3.33243 2.12639,-0.92038 -2.44377,-2.44379 1.23776,-2.72941 3.6498,0.60301 1.80902,1.80903 0.63476,-1.20602 -9.14037,-4.88756 0.60301,-1.5234 -4.88756,-0.603 -3.96717,-5.1732 -3.93543,-2.1264 -0.63476,-4.28455 4.88756,-1.20602 0.92038,3.36416 2.44378,-1.84077 4.57019,6.41095 3.33242,0.28563 2.76116,1.84077 -2.44378,-0.60301 6.09357,1.80903 3.04679,2.44378 -0.92038,5.1732 2.72941,2.44378 2.76116,2.72942 1.52339,-0.28564 -1.52339,0.92038 1.52339,1.80904 7.90261,0.60301 -0.88865,0.92038 -5.80794,-1.20603 -0.92038,1.5234 2.44377,3.96718 1.5234,-0.92038 1.52339,2.44378 0.31738,-1.5234 2.44378,1.5234 -2.15814,-4.28455 3.04679,0.31737 -2.12641,-1.5234 1.84077,-0.60302 2.1264,1.20603 v -1.84076 l -6.09358,-2.41205 1.84077,-0.63474 -0.31737,-1.5234 1.52339,0.92039 -3.36416,-4.85582 1.23776,-0.63476 3.96717,2.44378 -0.92038,-1.52339 2.44378,0.92039 -2.44378,-2.12641 4.85581,-0.92039 6.09358,1.20602 -1.80903,2.15815 4.25281,-3.36417 h 5.17319 l -5.45883,-5.17319 h -1.23775 l 3.6498,-3.6498 v -5.20493 l 0.63474,0.92039 1.80903,-0.60301 -0.60301,-3.04679 0.60301,0.60301 2.12641,-1.52339 0.31736,-1.52339 3.64981,-1.20602 1.84077,1.20602 -3.04679,-0.28564 1.80902,0.60301 -0.603,0.60301 5.80794,0.31738 0.603,1.20602 -3.36415,1.20602 h 2.1264 l 1.52339,2.76115 2.15815,0.92038 7.61696,-3.36416 h -3.68153 l -3.04679,-2.72941 3.04679,3.04679 -1.80903,-0.31737 -2.1264,-1.84077 1.52339,-2.12641 v 1.52339 l 2.1264,-1.80903 9.74338,-2.15814 -1.5234,2.15814 -2.72941,-0.31738 3.6498,2.12641 -1.23775,-0.60301 -1.20603,3.04679 -2.72942,0.60301 12.7902,5.80794 5.49057,2.41205 2.41204,3.36416 -0.60301,1.5234 -3.33242,1.84077 h -0.63475 -5.45883 l -7.01396,-1.23776 -5.80794,-3.04679 -5.45883,0.31737 -6.72833,3.33243 -7.2996,-0.60301 0.60301,1.52339 2.76115,0.31737 -3.68153,0.28564 0.31737,0.92039 h -7.93434 l -1.80903,1.84076 -0.31736,1.52339 3.36415,-0.31738 -0.60301,3.36416 1.80903,0.92039 -1.80903,0.28564 -0.92038,-1.20603 -0.60301,1.52339 3.93543,0.92038 -0.88865,1.20603 2.72943,1.5234 -1.20603,1.20602 3.93543,-0.28563 -3.33242,1.52339 3.96716,-0.92039 4.85583,2.72942 h 2.76115 l 0.28564,-2.72942 h 2.1264 l 6.72832,3.36417 4.25282,-0.92038 1.84076,-2.12641 2.72941,0.88865 2.72943,-0.88865 -0.28564,4.57019 1.80902,4.2528 -4.25281,12.7902 -8.21998,1.23776 -0.92038,-1.84078 -3.6498,-0.31736 -7.33134,3.0468 -8.50561,-2.41206 -7.33132,-0.31738 -1.20603,-1.84076 -6.69659,-0.88864 -0.92038,-1.84076 -5.49057,-1.20603 -6.41095,3.04679 v 5.45884 h -0.28564 l -4.28455,2.15813 -4.57018,-2.44378 -8.50562,-2.12641 -2.15814,-3.96716 -7.2996,-2.12641 -4.2528,0.28563 -8.25172,-3.64979 -0.60302,-1.84078 4.88756,-3.93543 -2.44378,-3.68153 2.44378,-3.64981 -2.44378,1.5234 -2.44378,-2.44378 -7.01396,2.15815 -5.45883,-1.23777 -4.28454,1.84078 -5.1732,-1.23776 -10.9811,1.84077 -4.57018,2.44378 -3.33242,0.603 -4.57018,2.44378 h -3.04679 l -0.31738,-1.5234 -6.37922,0.92039 -2.15814,-2.76114 -1.80903,0.603 -4.88755,7.01396 -10.6638,5.80795 -3.33242,4.57017 -0.92039,5.45883 -0.31737,0.31739 -2.44378,3.04677 -6.09358,4.25281 -5.45883,1.23776 -3.96717,5.49057 -3.6498,2.12641 -3.04678,6.3792 -4.22108,3.42765 -6.44269,9.39427 -1.52339,4.2528 0.88865,-1.52339 1.84076,4.25281 -2.1264,3.96717 0.60301,7.33134 -3.6498,9.426 -4.28455,4.28455 3.36416,3.93543 -0.31737,2.44378 3.68154,-0.60301 -3.04679,1.20602 -1.23776,-0.88864 -0.92038,3.93544 h 2.15814 l -2.15814,0.92038 3.04679,0.31737 -1.5234,1.20602 1.84077,0.31737 -0.60301,1.20603 4.25281,-1.20603 -2.44378,0.92038 1.84077,0.88865 -2.1264,1.23776 0.92038,1.5234 1.20602,-0.60302 -0.60301,1.20604 1.5234,-0.9204 0.603,4.28455 1.84077,0.88865 1.80904,0.92038 -0.9204,1.52339 1.5234,0.60302 0.31738,3.96717 1.52339,-0.28564 -2.12641,0.60301 3.33243,3.33242 -0.28564,1.84078 5.1732,2.72942 10.0608,9.45773 5.17319,2.12641 6.09358,-3.04679 9.45774,-1.20602 8.82299,2.44377 9.14038,-4.28455 6.41094,-2.44377 11.2668,-2.41205 -1.84076,1.20603 4.57018,0.31737 3.04679,2.72942 1.52339,-0.92038 -1.52339,1.23775 2.1264,0.28563 -1.52339,0.31739 0.63474,0.92037 1.5234,-0.92037 -1.5234,1.80902 3.04679,4.28456 3.33243,-0.31738 v -1.20602 l 0.60301,1.20602 -0.28563,-1.5234 0.92038,1.5234 0.60301,-1.80904 1.20602,1.20602 4.28455,-0.31737 -0.31738,-1.80902 1.5234,2.12639 1.52339,-1.20602 1.5234,3.64981 2.44377,-0.60302 0.60302,1.20602 h -1.20603 l 1.80903,3.64981 -3.04679,9.14037 1.84077,0.31737 -0.31737,3.04679 -1.5234,-0.31737 3.04679,1.52338 -2.1264,0.60302 -0.92039,-1.20603 -0.92038,4.88757 h -2.1264 l 4.57018,8.21997 10.0608,9.74338 2.12641,6.09358 2.44377,1.20601 -2.1264,0.63476 5.49057,10.9494 -1.84077,3.04679 2.12641,4.28454 2.1264,4.85583 -0.88864,5.80794 -5.20494,5.45882 -3.33242,11.2985 0.603,9.74338 12.5045,20.4071 2.12641,16.44 9.74337,15.5513 4.25281,7.01395 0.31738,3.33242 -1.84077,1.23776 2.15815,5.77621 1.52339,-0.92039 4.57018,3.04679 10.3464,-3.33243 8.82299,0.92039 8.85473,-2.44378 13.10749,-9.14035 4.25281,-5.49057 1.84077,-2.12642 4.85582,-3.96716 3.96717,-10.3464 -0.60301,0.88864 -1.23775,-1.52339 13.4249,-7.90261 1.20603,-8.53735 -2.72942,-7.29961 0.28564,-3.96717 0.92039,0.92039 6.69658,-4.5702 2.76116,-4.57017 13.7105,-6.41096 0.60302,-1.20602 4.2528,-6.09358 -0.88864,-8.85473 0.88864,-0.92038 -0.60301,-6.69659 1.52339,-3.04679 -2.72941,-2.12639 -1.23776,-0.9204 v -0.28563 l -1.20601,-7.93435 0.92038,-2.1264 h -1.23776 l 1.84077,-3.96718 -3.36417,-4.57018 2.15815,-6.41094 3.6498,-7.61698 0.92038,-1.80904 3.6498,-2.1264 -0.92038,-1.52338 h 2.44378 l 9.74337,-12.8219 10.3464,-8.21998 7.61698,-9.74339 10.0608,-23.4539 v -2.76115 l -0.28564,-1.5234 2.1264,-0.60301 h -1.5234 l 0.28564,-6.37922 -2.1264,-0.92038 -4.85582,3.04679 -8.25172,0.92038 -3.6498,2.12641 -2.72942,-0.92037 -4.88755,2.44378 -6.37922,-5.80796 -2.76115,0.31738 3.6498,-2.12641 -0.60301,-2.1264 -10.0608,-10.0608 -4.25281,-1.5234 -0.92038,-1.52339 -0.92039,-0.92039 -0.28564,1.84077 -6.41095,-13.7106 -5.49056,-3.68153 -2.41205,-10.3464 0.88865,0.60301 -2.41204,-4.57019 -5.49057,-3.96717 -1.5234,-4.25281 h 1.20603 l -3.04679,-2.44377 -8.21999,-14.3136 -4.57017,-4.88757 -1.20603,-3.93543 3.93544,5.77621 4.57019,3.36415 2.47663,-7.62036 -1.55625,6.09698 2.76115,0.28562 10.029,12.1872 1.5234,3.64979 4.57018,2.4438 3.68154,6.09356 1.20601,5.80794 3.64981,3.04679 3.64979,3.04679 9.77512,13.7105 0.60301,6.98224 4.85582,11.9015 6.41095,-0.31737 2.12641,-3.04679 11.9015,-3.04679 2.12641,-2.72941 10.3464,-4.57019 0.60301,-3.96717 8.85473,-2.44378 0.603,-3.6498 3.36417,-0.60301 0.60301,-3.6498 3.33242,-1.23775 -1.20602,-5.49057 0.92038,-1.80903 1.20603,0.92038 2.1264,-7.93434 -5.17319,-5.77621 -5.49056,-1.84077 -2.72942,-2.44377 -2.44378,-4.85583 -0.28564,-3.04679 -5.49057,9.42601 -5.17319,-0.28564 -1.52339,1.20602 -3.36417,-1.52339 -0.92038,-7.01397 -2.12641,-0.28563 0.60302,5.45882 -4.25281,-5.45882 v -2.76116 l -5.80795,-4.2528 -4.85582,-7.33134 h -1.52339 l 1.52339,-0.88864 -1.23776,-1.84076 -0.28563,-0.31739 3.33242,0.31739 -0.28563,-1.52341 2.72942,1.52341 1.84076,-0.60302 0.60302,0.60302 6.69658,8.82298 3.96717,1.23776 5.77621,3.96717 3.96718,0.88865 5.17319,-3.04679 3.96717,6.09358 9.45773,1.84076 5.77622,1.5234 13.1075,-2.72942 1.84077,3.33243 1.80903,0.31738 1.84077,3.64979 h 0.60301 l -0.44433,-5.64925 -0.15868,-1.65035 -3.6498,-5.80794 3.6498,5.49057 0.15868,1.96772 0.44433,4.72887 0.92038,0.92038 h 0.92039 l 0.28564,1.5234 0.92038,-1.20602 -0.31738,1.52339 3.04679,3.04679 3.04679,-0.63475 v 1.84077 l -3.04679,1.20602 7.33134,7.01396 2.72941,-2.1264 -1.20601,-5.17319 1.52339,0.28563 -0.60301,1.23776 0.60301,1.52339 h 0.92038 l -0.31737,1.5234 1.84077,2.44377 0.28564,4.25281 6.69658,17.0747 10.6638,22.8509 1.84076,5.45884 1.52339,5.20493 2.72943,3.93543 1.23775,-1.5234 v -3.04679 l 1.80903,-1.20602 -0.60301,-0.92038 v -2.44377 l 0.31738,-1.20603 1.20602,-0.31737 -1.5234,-6.37921 v -3.6498 -3.96718 l -2.72941,-8.21998 v -0.31738 -2.44377 l 1.20602,-0.28563 v -2.44378 l 1.84077,-1.23776 -0.60302,-2.41205 1.5234,-5.80793 v -4.85583 l 1.5234,-2.44377 -0.31737,-3.36417 -1.20603,-2.72941 0.88864,-1.84077 -0.603,-2.1264 1.5234,2.72941 -0.28564,-2.12641 1.20602,2.12641 -0.60301,-2.12641 0.60301,1.5234 v -1.5234 l 0.60302,0.92039 -0.60302,-2.44378 1.20602,2.76116 -0.88864,-3.68155 1.20602,2.76116 v -0.60301 l -1.20602,-2.76116 h 0.88864 l 5.80794,11.2668 -0.31737,-1.52339 0.60301,1.84076 1.23776,0.92039 1.20602,2.72941 3.04679,8.21998 1.84077,7.33135 v -1.5234 l 0.28564,2.1264 v -1.20603 l 0.92038,1.52341 -0.28564,-1.84077 0.60301,1.84077 -0.31737,-2.44378 0.31737,-0.60302 -0.60301,-1.84075 0.60301,1.52338 v -1.52338 l -1.23775,-3.36418 1.84076,4.57019 0.31738,-0.28564 2.1264,7.90261 1.80903,6.09357 -0.28564,-1.80902 1.52339,5.17319 0.9204,4.57018 0.28563,0.92039 0.60301,4.57018 0.63475,3.33243 v -1.5234 l 0.28564,1.5234 0.92038,8.53735 0.31738,-0.92039 1.52339,6.69661 v 0.0317 l 0.0317,0.0952 0.2539,1.11081 v 0.60301 l 1.23776,10.6638 0.88865,7.01396 1.23775,7.61698 v -1.84076 l 0.28564,1.52338 -0.60301,-6.98222 -0.60301,-8.25172 -0.31737,-3.93544 -1.5234,-7.01396 -0.60301,-1.5234 -1.20602,-7.61697 -0.603,-2.44378 h -0.31738 l -0.60302,-3.36415 -0.31736,-1.80903 -1.20603,-8.21999 v -0.31737 -0.31738 l -0.0952,-0.25389 v -0.0318 l -0.22216,-1.23775 -0.92039,-3.33243 0.31738,-0.92038 0.92038,3.96717 0.28564,-0.31737 0.92039,2.44378 1.30123,5.20493 0.53953,2.72941 v -0.92038 l 0.92039,3.33242 -0.63475,-2.72942 -0.7617,-4.25281 0.7617,3.64981 -1.5234,-7.61698 -0.66648,-2.79289 -2.38031,-9.10862 -0.22216,-1.49166 -0.22215,-0.82518 -0.44433,-1.33297 -1.17429,-3.80848 0.44433,1.17428 -0.5078,-2.53897 -0.28563,-0.31739 -3.04679,-9.42601 -1.5234,-4.28454 -0.63474,-1.80903 -0.60302,-2.12641 v 0.28564 l -0.3491,-0.88864 -0.85692,-2.44379 0.28564,0.88865 -0.60301,-1.52339 -0.19042,-0.47607 0.0317,0.19043 -0.44432,-0.92038 0.22216,0.22216 0.0952,0.0952 -0.31737,-0.63475 -0.85691,-2.15814 -0.0635,-0.2539 0.31738,0.60302 -1.30124,-2.82463 -0.22216,-0.53954 0.0635,0.2539 0.12696,0.34911 0.0317,0.15868 0.0318,0.0635 0.0317,0.0952 0.12695,0.19041 0.79343,1.93598 -0.603,-1.20601 -0.60302,-1.5234 0.22216,0.44432 -0.53954,-1.36469 -0.603,-1.20603 -0.60301,-1.84077 -0.92038,-1.5234 0.603,0.92038 -1.20602,-2.76115 -0.60301,-0.88864 v -0.31738 l -0.92038,-1.52339 -0.60301,-1.84077 v 0.31737 l -0.92039,-1.84076 0.60302,0.92038 -1.5234,-3.04679 -0.92038,-1.5234 v -0.28563 l -0.92039,-1.5234 -0.60301,-1.23776 -0.28563,-0.28563 -1.23776,-2.44378 -0.28564,-0.31737 v -0.60301 l -0.9204,-1.84077 -0.31737,-0.28563 -0.92039,-1.84077 0.63476,1.52339 -0.92038,-1.52339 -0.57128,-1.14255 0.57128,0.85691 -1.23776,-2.44377 -0.28564,-0.28564 v -0.0317 l -0.12695,-0.0952 -0.19043,-0.5078 -0.28563,-0.44433 v -0.15868 h -0.0952 l -0.82517,-1.23775 0.41258,0.72995 -0.41258,-0.41259 v -0.31736 -0.28564 l -0.31738,-0.31738 -0.28564,-0.60301 -0.31737,-0.31736 -0.31737,-0.60302 -0.28564,-0.28564 -0.60301,-1.23776 -0.31738,-0.28563 -0.31737,-0.63475 -0.12695,-0.12694 -1.68208,-2.91985 -0.31738,-0.28563 v -0.0318 l -0.28563,-0.57127 -0.31737,-0.31737 -0.31738,-0.60301 -0.60301,-0.60302 -0.28564,-0.63475 -0.31736,-0.28563 -0.60302,-1.23777 -0.31738,-0.28562 -0.603,-1.23777 -0.60301,-0.28563 -0.60302,-1.23777 -0.31736,-0.28562 -0.60302,-1.23776 -0.60301,-0.28564 -0.31737,-0.92039 -0.92039,-1.20601 -2.44378,-3.04679 -0.28563,-0.63474 -0.31737,-0.28564 -0.60302,-1.23777 -0.60301,-0.28563 -0.31737,-0.60302 -0.28563,-0.31737 -0.31738,-0.603 -0.92038,-0.92039 -0.28564,-0.60302 -0.92039,-0.92037 -0.31737,-0.57127 -1.80903,-2.15815 v -0.31738 l -2.15814,-2.44378 -0.88865,-0.92038 -2.76115,-3.33243 -0.60301,-0.603 -0.31737,-0.63476 -0.88865,-0.88864 -0.31737,-0.63475 -0.60302,-0.28564 -0.31737,-0.603 -0.60301,-0.63476 -0.31737,-0.603 -0.60302,-0.28564 -0.28563,-0.63475 -0.63475,-0.28563 -0.28564,-0.60301 -0.60301,-0.63475 -0.63474,-0.28563 -0.28564,-0.60302 -1.5234,-1.5234 -0.31736,-0.63474 -0.60302,-0.28564 -0.31737,-0.60301 -0.60301,-0.31738 -0.28563,-0.60301 -0.63476,-0.60301 -0.603,-0.31737 -0.28564,-0.60301 -0.63475,-0.31737 -0.28564,-0.60301 -1.5234,-1.52339 -0.603,-0.31738 -0.31738,-0.60301 -1.52339,-1.52339 -0.60301,-0.28564 -0.31737,-0.63474 -0.60302,-0.28564 -2.44377,-2.44378 -0.60302,-0.31737 -0.31736,-0.60301 -0.60302,-0.28564 -1.52339,-1.52339 -0.60301,-0.31737 -0.31737,-0.60301 -0.60302,-0.31738 -1.52339,-1.52339 -0.60301,-0.28564 -0.31737,-0.63474 -0.60302,-0.28564 -1.52339,-1.52339 -1.20602,-0.60301 h 0.28564 l -0.28564,-0.31737 h -0.15869 l -0.15869,-0.31738 -0.28563,-0.12695 v -0.15868 h -0.31737 l -0.92038,-0.92039 -0.28564,-0.28563 V 187.01 l -0.31738,-0.28564 -1.20602,-0.60301 -0.31737,-0.63475 -0.60302,-0.28563 -0.92038,-0.92039 -0.60301,-0.31737 0.60301,0.63474 -0.92038,-0.63474 -0.60301,-0.60301 -0.31738,-0.28564 -1.01559,-0.79343 0.82517,0.60301 -0.69822,-0.72996 -0.63476,-0.31738 0.25391,0.2539 -1.45992,-1.17428 -1.20602,-0.98386 -0.38085,-0.2539 -0.53953,-0.28563 -0.0635,-0.12695 -0.2539,-0.15869 -0.34911,-0.34911 -0.82517,-0.53954 1.77729,1.49166 -2.1264,-1.52339 -0.60302,-0.31737 h 0.31738 l -0.79343,-0.53954 -1.04734,-0.66648 0.31737,0.31737 -3.36415,-2.50725 -3.87197,-2.72941 -0.38084,-0.22216 v 0.2539 l 1.55512,1.07907 -1.8725,-1.07907 -0.31738,-0.60301 0.63476,0.34911 v -0.0317 l 0.38084,0.2539 1.14254,0.66649 -0.63474,-0.63475 -1.80903,-0.88865 -0.31737,-0.63475 -2.44379,-1.20602 -0.603,-0.60301 -0.60301,-0.31737 -0.31738,-0.28564 -1.20602,-0.63475 -0.60301,-0.60301 -2.44378,-1.20602 -0.92038,-0.92038 -2.44378,-1.20602 -0.15868,-0.0952 -0.0318,-0.0317 -1.6186,-0.79344 -0.28564,-0.28563 1.90424,1.07907 -1.99945,-1.17428 -0.53954,-0.53954 -2.53899,-1.2695 -1.42818,-0.8569 0.82517,0.53953 -0.5078,-0.2539 -1.23775,-0.60301 -0.28564,-0.28564 -1.84077,-0.92038 -0.28564,-0.31737 -1.84076,-0.92039 -0.31738,-0.28563 -1.20602,-0.60301 h -0.60301 l -0.31737,-0.31738 -2.44378,-1.20602 -0.28564,-0.31737 -1.84076,-0.92039 h -0.28564 l -1.23776,-0.60301 -4.25281,-2.12641 h -0.60301 l -0.63474,-0.31737 -0.28564,-0.28564 -3.64981,-1.84077 h -0.63474 l -3.04679,-1.52339 H 505.875 l -2.44378,-1.20602 h -0.603 l -2.44379,-1.23776 h -0.603 l -2.44379,-1.20602 h -0.603 l -1.80904,-0.92038 h -0.63474 l -1.20603,-0.60301 h -0.603 v -0.31738 h -0.60302 l -1.23775,-0.60301 h -0.60302 l -1.20602,-0.60301 h -0.63474 l -1.20602,-0.60301 h -0.31738 -0.28563 l -0.15869,-0.0635 0.44432,0.0635 -0.79343,-0.2539 -0.15869,-0.0635 -0.15868,-0.0635 -0.63475,-0.22216 -0.66649,-0.31737 h -0.31737 l -1.04734,-0.34911 -0.47605,-0.2539 h -0.2539 -0.0635 -0.28564 l -0.603,-0.31738 h -0.44433 l 0.72995,0.31738 -0.82517,-0.31738 h -0.0952 l -0.31737,-0.15868 -1.17428,-0.44433 h -0.0317 -0.28564 l -0.76169,-0.25389 1.04733,0.25389 -1.42817,-0.41258 0.22215,0.0952 -1.20602,-0.28564 -1.23775,-0.31737 1.52339,0.31737 -0.31737,-0.12695 0.38084,0.0635 -0.15869,-0.0635 -0.57127,-0.15868 -0.8569,-0.34912 0.15869,0.15869 -5.9349,-1.68208 -2.76115,-0.60301 -2.2851,-0.53953 -0.12695,-0.0635 h -0.15868 l -1.36471,-0.31737 -0.63474,-0.28564 h -0.88866 l -1.23775,-0.31737 -1.80903,-0.28564 z m 18.6298,4.50671 0.12695,0.0635 h 0.12695 z m 0.12695,0.0635 h -0.19042 l 0.69822,0.19042 z m 1.93598,0.60301 -1.52339,-0.60301 h -0.2539 z m 1.20602,0.44432 0.41258,0.15869 h 0.0952 l -1.39644,-0.60301 0.88864,0.44432 z m 74.0751,35.5141 2.72943,2.06293 4.09412,2.85636 1.30122,0.79344 -0.82517,-0.53954 -2.53898,-1.87251 -0.5078,-0.2539 -0.0952,-0.19042 -1.3647,-1.0156 -0.66649,-0.31737 -0.53953,-0.53954 -0.0635,-0.0952 -0.0952,-0.0317 -0.53953,-0.2539 -0.28564,-0.31737 -0.60301,-0.28564 z m 9.0769,6.34748 0.5078,0.34911 -0.15869,-0.31737 -0.60301,-0.28564 z m 1.58687,1.17428 0.57127,0.34912 -0.28563,-0.2539 -0.44433,-0.2539 z m 89.88031,117.39701 0.0635,0.25389 0.53953,1.26949 -0.60301,-1.52339 z m 0.0635,0.25389 -0.15869,-0.34912 0.19043,0.50781 -0.0318,-0.15869 z m 12.3458,40.2113 0.50779,1.84077 -0.12695,-0.57128 -0.92038,-3.64979 z m 2.18988,10.4099 0.34911,1.80903 h 0.28564 l -0.31738,-1.20603 v 0.9204 z m 0.63475,3.33242 v -0.60301 l -0.25391,-0.72996 z m 0,0 0.82517,5.04625 -0.22217,-2.28508 z m 0.82517,5.04625 0.0635,0.7617 v -0.31738 z m -18.8203,-48.30431 h -0.60301 l 1.20602,2.12641 z m -388.402,-20.3437 0.2539,-0.38086 -0.92038,0.9204 z m 116.095,-132.567 0.53954,-0.0317 -2.44378,-0.31737 1.90424,0.34911 z m 68.77489,-23.4857 -0.60301,0.92039 h -2.72941 v 0.28564 l -1.23776,0.92038 2.44378,0.60301 -0.60301,0.60301 0.28563,0.0317 -0.603,0.60301 h 2.76115 l -0.92039,0.60301 h 0.92039 2.1264 l -1.84077,-0.60301 1.52339,0.28564 -1.52339,-0.60301 1.52339,0.31737 -1.52339,-0.63475 1.23777,0.31738 -1.84078,-0.60301 h 1.5234 l -0.28564,-0.31738 -0.63475,-0.92038 2.44379,-0.88865 -2.44379,-0.92038 z m -0.28563,4.57018 -1.52339,0.28564 1.20601,0.31737 -0.92038,0.31738 h 1.84077 l -0.60301,1.20602 1.5234,0.60301 1.80902,-0.28564 2.76115,1.20602 4.57019,0.31738 -6.41095,-1.84077 -1.80903,-1.20602 -0.31738,-0.63475 z m -88.07129,-2.76115 -1.80903,0.63475 h 1.5234 z m 110.31899,0.31738 1.20602,0.31737 1.5234,0.60301 h 0.31737 l 0.60301,0.28564 1.80903,0.63475 -2.72941,-0.92039 h -0.60301 l -0.31737,-0.31737 h -0.28564 z m -116.09499,0.92038 -1.20602,0.28564 h 1.5234 z m -4.88755,0.92039 1.52339,0.28563 -1.65034,-0.2539 0.12695,-0.0317 z m 113.96899,0.28563 -0.92038,0.31738 1.20602,0.28563 h 0.63474 z m -114.57199,0.60301 -1.80903,0.31738 h -0.92038 l -0.60301,0.60301 1.20603,0.31737 0.82517,-0.82517 1.30122,0.22216 z m -29.8649,0.31738 -0.95212,0.38085 0.0635,-0.0635 -0.85691,0.28563 h 0.22216 l -0.50779,0.15869 0.82517,-0.15869 1.20602,-0.60301 z m -2.12641,0.60301 -0.8569,0.31737 h -0.0635 l -0.22216,0.12695 -1.30124,0.47606 0.92038,-0.28564 -0.603,0.28564 0.92038,-0.31737 0.85691,-0.28564 h -0.2539 l 0.60301,-0.31737 z m -0.60301,0.31737 0.53954,-0.0952 0.28564,-0.19042 z m -1.52339,0.60301 h -0.31738 -0.28564 l -0.66648,0.31738 h -0.2539 l -0.69822,0.28563 h -0.22216 l -1.14255,0.57127 h 0.0635 l 0.79345,-0.25389 0.88864,-0.31738 h -0.0952 l 0.22216,-0.0635 -0.12695,0.0635 0.92039,-0.28563 0.92038,-0.31738 z m 168.36699,-0.79343 0.57127,0.19042 h -0.15868 z m -9.26732,1.04733 4.82408,1.2695 -2.76115,-0.60301 z m 5.7762,0.19042 2.09467,0.7617 4.25281,1.52339 1.23776,0.63475 0.60301,-0.31738 2.1264,0.60301 -2.72941,-0.28563 -1.5234,-0.63475 -1.23775,-0.28564 -2.72942,-1.23776 0.92038,0.63475 z m -169.12899,0.7617 -0.82517,0.41258 1.39644,-0.41258 z m 0,0.31737 -1.42819,0.41259 -0.19041,0.0952 z m -1.6186,0.5078 -1.42819,0.41259 -0.63475,0.19042 v 0.0317 l -0.28563,0.0635 h 0.28563 l 1.23775,-0.28564 -0.8569,0.15869 1.45992,-0.47606 z m -2.34857,0.69822 -1.5234,0.63475 -2.12641,0.60301 -2.15813,0.92038 1.23775,-0.31737 -2.12641,0.60301 h 0.60302 l 0.603,-0.28564 h 0.31738 l 1.04734,-0.44432 0.76169,-0.19042 1.23776,-0.60301 1.20602,-0.28564 z m 0,0 0.28563,-0.0952 v -0.0317 l -0.28563,0.12695 z m 0.28563,-0.12695 0.41258,-0.15868 h -0.41258 z m 0.41258,-0.15868 h 0.22217 l 0.603,-0.31738 0.0952,-0.0317 0.69823,-0.22216 h 0.0635 l -0.57127,0.2539 0.72996,-0.19043 0.15869,-0.0952 h -0.15869 l 0.19043,-0.0635 -0.22217,0.0317 -0.0317,0.0317 h -0.0317 -0.31738 l -1.42819,0.60301 z m -6.79179,2.72941 -3.36417,1.23776 -4.57018,1.80903 -0.60301,0.31737 -0.31737,0.28564 h 0.31737 l -1.99946,0.8569 0.47607,-0.25389 1.20602,-0.60301 v -0.28564 l -2.41204,1.20602 v 0.31737 l -0.92039,0.28564 -3.04679,1.84077 4.57018,-2.12641 -1.23775,0.92038 2.15814,-1.23776 -0.31737,0.31738 1.20602,-0.60301 h 0.31737 l 1.20602,-0.63475 h 0.63474 l 1.11081,-0.82517 1.0156,-0.38085 -2.12641,0.60301 1.5234,-0.60301 0.28564,-0.31738 1.80903,-0.50779 0.95212,-0.38085 -1.84076,0.60301 1.52339,-0.60301 -0.92039,0.28563 -0.92038,0.31738 2.15814,-0.92039 -0.63474,0.31738 1.52339,-0.63475 h -0.28564 l 0.92038,-0.28564 z m -2.76115,1.23776 -0.60302,0.28563 1.5234,-0.60301 z m -8.50562,3.33243 -3.04679,1.23776 -0.92039,0.60301 -2.44378,1.20602 -0.603,0.31737 h -0.19043 -0.0635 -0.0952 l -0.31737,0.15869 -1.17428,0.44432 -1.20602,0.60301 -0.92039,0.60301 -0.60301,0.31737 -1.52339,0.60301 -3.96717,2.76115 6.60137,-3.74501 0.69823,-0.22216 -4.25281,2.44378 2.72941,-1.52339 4.88755,-2.44378 1.2695,-0.7617 -0.66648,0.44433 0.98386,-0.60301 2.38029,-1.11081 z m -2.44379,1.33297 -0.31736,0.19042 1.23775,-0.60301 z m -4.91929,2.03119 0.63475,-0.31738 1.14254,-0.57127 -2.03119,0.88865 z m 179.18899,-10.9811 1.20601,0.60301 2.44378,0.63474 v -0.31737 l -0.603,-0.31737 h -0.31738 z m -149.29299,0.31737 -0.92038,0.28564 -1.5234,0.63474 0.60301,0.28564 -1.5234,0.31737 2.15815,-0.31737 1.5234,-0.92038 0.603,-0.28564 z m 176.71399,0.28564 h 0.31736 l 2.41205,0.92038 -2.41205,-0.60301 z m -87.75389,0.92038 -1.20602,0.92038 1.80902,-0.92038 z m 18.8837,0 -0.28563,1.23776 -2.12641,-0.31737 z m 31.38829,0 -0.28564,0.60301 1.80903,0.63475 0.92038,-0.63475 z m 40.5286,0 1.52339,0.31737 h -0.92038 z m -94.76779,0.92038 -1.5234,0.60301 h 0.92038 z m 0.63474,0 -1.23776,1.20602 3.04679,-0.88864 -1.52339,0.28563 z m 99.02059,0.92039 h 1.20602 l -0.31738,0.28564 z m -68.26709,0.28564 1.23776,1.23776 -1.23776,0.28563 z m -12.1872,0.31737 h 3.36417 l -0.60302,0.60301 z m -121.237,1.96772 -0.31738,0.15869 -0.92038,0.31737 z m 190.10699,0.47606 0.28564,0.60301 -2.41205,-0.31737 z m -144.72199,0.28564 -1.84076,0.92038 h -2.44379 l -0.88864,0.92038 0.28564,-0.92038 -2.44379,0.92038 -0.28563,-0.60301 -0.31737,-0.31737 -3.33243,1.84077 1.80903,-1.52339 -1.52339,-0.92038 -0.60302,1.20602 -0.603,-0.60301 -0.92039,0.92038 -0.92038,-0.31737 -0.28564,0.63474 h 2.72941 l -2.12639,0.60301 0.92038,0.28564 -3.96718,0.31738 3.0468,1.20602 -3.96718,1.23776 3.04678,-0.31738 1.20603,0.31738 1.23776,0.60301 4.25281,-0.60301 4.57018,-0.92039 3.6498,-1.52339 -0.60302,-0.31737 h 1.23776 l -0.31737,-2.12641 1.5234,-0.60301 -1.84077,0.60301 z m 86.5157,0.63474 0.92038,0.88865 -1.52339,-0.28564 z m -131.012,0.88865 v 0.31737 l -2.28509,0.44433 z m 124.315,2.44377 3.04679,0.92039 h -2.72941 z m 15.837,1.52339 h 0.31738 l 2.72941,0.92039 h -1.52339 l 0.60301,1.20602 z m -15.234,0.60301 5.49057,2.76115 -2.44378,-0.92038 0.31738,1.17428 -1.52339,-0.57127 0.603,-0.92039 z m 14.3136,0.31738 1.23776,0.60301 -1.52339,-0.28564 z m -15.837,0.60301 0.60301,1.84077 0.31737,-1.23776 1.20603,0.63475 -0.88865,-0.92039 1.52339,0.60301 -2.76115,1.84077 0.28564,1.33297 0.28563,0.15869 1.55514,-0.28564 -0.28564,0.92039 -1.2695,-0.63475 -0.25389,0.0317 -0.0317,-0.19042 -0.88865,-0.44433 0.60301,-0.88864 0.60301,-0.92039 -0.60301,-1.23776 -1.20602,-0.28563 1.20602,-0.31738 z m 18.5981,0.60301 3.04679,0.92038 3.04678,3.04679 -0.92039,0.60301 -2.44377,-0.28563 1.84076,-0.31738 -3.96716,-1.52339 -1.52339,-1.80903 2.12639,1.20602 -1.20601,-1.20602 1.80903,1.20602 0.92038,-0.31737 z m -163.321,0.63475 -1.14254,0.41258 -0.19043,0.12695 z m -1.33297,0.53953 -0.19043,0.0635 -3.04679,1.52339 v 0.28564 l 1.5234,-0.88865 1.71382,-0.98386 z m -3.23722,1.58687 -2.47552,1.45992 0.6665,-0.2539 z m -2.47552,1.45992 -0.22215,0.0952 0.57127,-0.34911 -1.20602,0.60301 0.41259,-0.15869 -3.17374,1.99945 3.17374,-1.96772 -0.12695,0.12695 0.57126,-0.34911 z m -3.61805,2.18988 h -0.28564 l -0.31737,0.31738 z m 9.52122,-5.36362 0.22215,-0.12695 -1.52339,0.60301 z m 153.482,-0.41258 1.5234,0.28563 v 1.52339 l -2.72941,0.92039 1.52338,0.31737 -2.44378,0.28564 -1.52339,-1.20602 1.84077,0.28563 1.5234,-0.60301 -2.41205,-0.92038 h 3.01505 z m -11.8698,0.88864 h 2.12641 l 0.31737,0.63475 -2.15814,0.28564 v 0.92038 l 2.15814,-0.92038 -1.5234,1.23776 -0.63474,-0.31738 v 0.31738 z m 16.1543,0.92039 5.77621,2.76115 -2.72942,1.52339 -4.88756,-3.04679 z m -165.161,3.36416 -0.88864,0.47606 0.603,-0.19043 z m -0.88864,0.47606 -0.31738,0.12695 -0.50779,0.34911 z m -0.82517,0.47606 -1.0156,0.57127 -1.84078,0.92038 -0.88864,0.60302 -1.23776,0.60301 -3.6498,2.1264 2.44379,-1.52339 -2.76116,1.52339 3.36416,-2.1264 h -0.31737 l -3.04679,1.84077 -6.69659,4.25281 -3.96717,2.72941 -3.42764,2.44378 1.0156,-0.60301 -1.23776,0.92038 h -0.19042 l -0.41259,0.28564 -7.61698,5.49057 -1.52339,1.23776 -0.31737,0.28563 h 0.31737 l -0.31737,0.31738 h 0.31737 l -4.25281,3.33243 3.36417,-2.82463 0.57127,-0.82517 -1.80903,1.52339 -0.31738,0.31737 -0.28563,0.28564 -0.19042,0.0952 -1.55514,1.23776 -0.0952,0.19042 -0.41258,0.22216 -0.34912,0.2539 -0.0952,0.0952 -0.34911,0.34911 -0.22216,0.12695 h -0.0318 l -0.38084,0.19043 -0.0635,0.19042 h -0.0317 l -0.0318,0.0952 h -0.0635 -0.0317 -0.0635 v 0.0635 0.2539 h -0.31738 l -0.28564,0.31737 h 0.28564 l -0.92039,0.28564 -0.28564,0.60301 -0.60301,0.31737 -1.23776,1.20602 -0.60301,0.31738 -0.31737,0.60301 -1.20602,0.60301 -0.31738,0.63475 -0.60301,0.28563 -2.12641,2.1264 -0.60301,0.31738 -0.31737,0.60301 -0.60301,0.31737 -1.65034,1.65034 -0.19043,0.15869 -0.28563,0.31737 -2.44379,2.44378 -0.8569,0.79344 -0.0635,0.12695 -0.28564,0.28563 -0.19042,0.0952 -0.44432,0.41259 v 0.0952 l -0.88865,0.82517 -0.31738,0.41259 -0.82517,0.60301 -0.0635,0.0635 -0.19043,0.15868 -0.47605,0.44433 -0.0317,0.0317 v 0.0317 l -0.2539,0.47606 -0.60302,0.31737 -0.603,0.60301 -0.31738,0.60301 -0.28563,0.63475 2.44378,-2.76115 -0.92038,1.23776 2.1264,-1.52339 1.20603,-1.52339 -0.28564,0.60301 3.64979,-2.76115 -2.1264,1.84077 h 0.28564 0.63474 l -1.52339,1.20602 0.88865,-1.20602 -3.6498,2.72942 -2.1264,2.44378 -0.92039,1.23776 4.28455,-3.96717 v 0.60301 l 0.88865,-0.92038 2.76115,-1.5234 0.92038,-0.60301 0.47606,-0.72996 0.7617,-0.47606 h -0.34912 l 2.76115,-2.15814 2.44379,-2.41204 -4.28455,3.33243 -0.98386,1.20602 0.38085,-0.60301 -1.52339,0.63474 1.52339,-2.15814 0.92038,-0.88864 1.52339,-1.52339 h -0.31737 l 2.76115,-2.44378 -0.92039,0.60301 0.92039,-0.92039 v -0.28563 h 0.60301 l 1.80903,-1.23776 2.44378,-2.12641 -0.28564,-0.31738 -2.76114,1.84077 -3.33243,2.72941 1.80903,-1.80903 4.28454,-3.04679 2.72943,-2.12641 0.92038,-0.92038 h 3.33243 l 0.63474,-0.31737 0.0635,-0.15869 h 0.0317 l 3.84023,-2.57073 1.84076,-0.60301 3.36417,-1.84077 0.88864,-1.20602 0.63476,0.28564 -0.31738,-0.60301 h 0.60301 l 0.60301,-0.60301 2.15815,-1.52339 1.20602,-1.23776 -2.12641,0.92038 2.12641,-1.52339 0.31737,-0.60301 -2.09467,0.98386 1.7773,-0.98386 -1.5234,0.60301 3.64979,-1.52339 v -0.60301 l 0.9204,-0.60301 -0.9204,0.28564 1.23776,-0.88865 -2.15814,1.20602 1.84078,-1.20602 0.31736,-0.31737 -0.72995,0.47606 -1.11081,0.44432 3.36416,-2.1264 v -0.63475 l 1.20603,-0.60301 h -0.31738 l 0.63474,-0.60301 0.60302,-0.31737 0.28563,-0.28564 2.15814,-1.23776 0.88865,-0.88865 0.92038,-0.31737 0.92039,-0.92039 0.92039,-0.60301 1.20602,-0.60301 -1.20602,0.28564 1.80902,-0.88865 1.52339,-0.92038 h -0.603 l 0.92038,-0.31737 2.539,-1.77729 z m -50.36721,38.0531 -1.23776,2.1264 2.15815,-1.52339 h -0.92039 l 1.80903,-2.1264 z m 1.52339,0.88865 -1.68207,1.71382 0.7617,-0.47607 h 0.31737 l 0.28564,-0.60301 z m -1.68207,1.71382 -0.72996,0.44432 h 0.28564 z m -10.2194,5.90315 -0.28563,0.31737 -0.60302,0.31737 -0.31737,0.28564 -0.31737,0.60301 0.31737,-0.28564 h 0.31737 z m 1.80903,-2.06293 0.34911,-0.34912 -0.31738,0.28564 -0.0317,0.0635 z m 2.76115,-2.60246 v -0.19043 l -0.28563,0.28564 -0.44433,0.57127 z m 17.83641,-16.1861 0.2539,-0.22217 -0.0952,0.0635 -0.15869,0.15869 z m 32.4356,-23.0096 1.23776,-0.60302 -0.92039,0.60302 2.12641,-1.20602 h -0.28564 z m 132.25,-1.20603 h 2.12641 l -0.60302,1.52339 -3.96717,0.88865 0.60301,-1.52339 h 1.84077 z m 21.6132,0.88865 1.23775,0.63474 1.5234,-0.31737 -1.5234,-0.31737 z m 14.0279,0 v 1.52339 l -1.84076,-1.20602 z m -79.8195,0.92038 -1.52339,1.84077 h -1.5234 l -0.31738,1.80903 -2.44377,1.23776 h 2.76115 l -3.96717,3.6498 2.1264,-1.52339 1.84077,-0.92038 0.28564,0.92038 -0.88865,-0.31737 -2.44378,3.04679 0.28564,0.63475 0.63474,-0.63475 4.57019,-0.28564 -2.15814,1.20602 0.63474,1.23776 1.20603,-0.31737 -1.52339,1.84077 0.603,0.60301 -4.25281,0.28563 -1.84076,1.23776 1.84076,-0.31737 v 1.23776 l -4.88755,1.80903 4.57017,1.52339 3.64981,-1.20602 -2.72942,1.80903 h -3.36416 l -5.77621,3.36416 6.09358,-0.60301 1.20602,-1.23776 10.0608,-0.28564 4.28455,-1.23776 0.28564,-0.60301 -3.04679,-0.28563 1.84077,-0.31738 3.33242,-2.72941 -0.60301,-1.23776 h -3.6498 -0.31737 l 0.92038,-1.80903 -0.60301,-0.31737 h -1.20602 l 2.12641,-0.31738 v -0.88864 l -2.44378,-1.23776 -0.60301,-3.6498 -3.96717,-0.60301 3.36416,-0.31738 -1.84076,-0.28563 2.44377,-0.63475 3.04679,-2.72941 -6.41096,0.31737 4.88757,-2.76115 h -4.57019 z m -3.04679,0.31737 -2.76115,1.20602 -0.28564,0.60302 1.5234,-0.60302 z m 68.5527,0 0.60301,1.20602 3.04679,-1.20602 z m -7.014,1.52339 -2.1264,0.92039 0.28563,1.20602 z m -63.9822,0.60302 0.60301,1.52339 0.31738,-0.60301 z m 38.4022,1.20602 2.1264,0.31737 -1.84076,0.31737 0.31736,0.88865 -0.92038,-0.60301 -1.20602,0.60301 z m -38.4019,1.52339 -1.20601,0.92039 1.80902,-0.28564 z m -91.721,1.23776 -1.20602,0.92039 0.60301,-0.63475 z m 138.026,0 -0.603,1.20602 -0.60302,-0.92038 -2.76115,0.63475 2.76115,3.33242 v -1.20602 l 2.12641,-1.52339 z m -4.5703,1.20602 -1.80904,0.31738 -0.31737,1.20602 h 2.12641 z m 172.1438,0.31738 0.60301,0.28563 1.5234,1.23776 z m -219.36899,0.28563 -1.20603,1.23776 -0.31737,-0.60301 -3.04679,1.52339 h 1.5234 l -1.5234,1.20602 h -3.96717 l 0.63475,1.20602 -2.44378,0.92039 3.04679,0.60301 -3.96718,2.15814 3.6498,-0.31738 -5.17319,1.20602 h 1.52339 l -2.44378,0.92039 h 2.44378 l -2.1264,0.92038 2.1264,-0.31737 -1.20602,0.63474 5.1732,-1.23776 5.17319,-0.92038 2.44378,-5.17319 3.33242,-1.20602 -0.603,-2.1264 -3.33243,0.60301 1.20602,-0.60301 z m -91.4037,0.92039 -2.47552,2.06293 0.95213,-0.82518 z m 313.75599,0.28563 0.76169,0.53954 -0.0952,-0.22216 z m -314.04169,0.63471 -2.44379,1.84077 0.28564,0.28564 -1.20602,0.31737 0.92038,-0.60301 -1.23776,0.60301 -1.52339,1.20602 0.92039,-0.92038 0.603,-0.28564 0.41259,-0.38085 0.5078,-0.22216 0.44432,-0.31737 h -0.12695 l 1.80903,-1.20602 -1.68208,1.20602 h 0.15869 z m 146.849,0.60301 -1.23776,0.60301 1.23776,0.31738 z m -153.863,4.57018 -1.5234,1.23776 v -0.31737 z m 332.60779,2.85637 0.69822,0.5078 -0.28564,-0.31737 z m -331.68749,0.79344 -4.88757,3.04679 -2.44377,2.15814 -2.1264,1.52339 -0.60302,0.28563 -1.23775,1.23776 0.31737,-0.63475 -3.04679,2.15814 h 0.92038 l -3.0468,1.80903 -0.92038,1.23776 1.52339,-0.92038 0.31737,0.92038 2.41206,-1.23776 -2.12642,1.52339 2.12642,-0.60301 -3.64982,2.12641 h 0.92039 l 3.96718,-3.04679 -1.23776,1.52339 -2.41206,2.12641 2.12642,-1.52339 -2.12642,2.15814 h 0.60301 l 3.64981,-3.04679 0.60301,-0.92038 -1.5234,0.92038 2.76116,-2.15814 -3.04679,2.15814 0.88865,-0.92038 0.92038,-0.60301 0.31737,-0.63475 1.80904,-0.88864 -1.5234,0.28563 3.68154,-2.72941 h -1.23776 l 1.23776,-0.92038 -2.76116,1.52339 2.12641,-1.52339 -1.52339,0.31737 2.44377,-1.52339 h -0.28563 l 0.60301,-0.63474 -0.92039,0.63474 4.57018,-3.36416 0.60302,-0.92038 h 0.603 l 0.63476,-0.92039 z m 332.09999,0.63474 1.80904,1.20602 2.1264,1.84077 z m -341.58899,1.07907 -0.28564,0.12695 -0.28564,0.31738 z m -0.57128,0.44433 -0.60301,0.28563 -0.19042,0.34912 z m -2.126,3.33242 -1.5234,2.44378 0.88866,-0.60301 0.63474,-1.23776 z m 279.38404,8.85474 4.85582,0.28563 1.23776,1.23776 0.92038,3.6498 2.12641,0.60301 -5.1732,-0.31737 -0.31737,1.84077 2.1264,1.20602 -3.64979,-0.28564 0.31737,0.92039 2.12641,0.60301 3.04679,3.6498 4.85582,1.52339 0.31736,2.12641 3.36417,3.6498 -1.52339,-3.33243 1.80903,-0.60301 5.17319,3.93543 -2.1264,1.52339 -3.33243,-1.52339 0.88864,2.76115 1.84077,2.12641 -0.92038,-1.20602 2.1264,0.28563 1.23776,1.84077 -1.52339,-0.60302 0.60301,1.80903 0.92038,-0.92038 1.80903,1.84076 3.96717,7.93436 -6.3792,0.88865 -10.0608,-3.93545 -3.04679,-4.88756 0.603,-1.52339 h 0.31738 l -0.92038,-3.04679 2.12639,-0.92038 -3.04678,-0.92039 -8.53735,-6.98222 -2.44379,-4.57018 v 1.52339 l -3.93543,-3.96717 v -3.6498 l 3.93543,-0.31737 v -2.72942 l 4.28455,-1.52339 z m -292.6817,1.33297 -0.41258,0.19042 -0.31738,0.28564 -0.15869,0.28563 z m -10.474,10.53681 -0.60301,0.31737 -0.31737,0.60301 z m 171.54101,1.84077 -3.36416,2.41204 1.20602,3.04679 2.15814,-2.1264 z m -174.39701,1.0156 -1.11081,1.11081 -0.15868,0.22216 0.47606,-0.22216 z m -1.2695,1.33297 -0.15868,0.0635 -0.15869,0.34912 0.31737,-0.41259 z m -0.31737,0.41259 -0.44433,0.57127 0.31738,-0.28564 z m -0.5707,0.72995 -0.79343,0.7617 -0.0952,0.12695 -0.0317,0.0317 -0.15869,0.15868 -0.0635,0.12695 -0.44433,0.57128 0.0635,-0.0317 0.31738,-0.41259 -0.19042,0.34911 0.31737,-0.31737 z m -1.39644,1.68207 -0.12696,0.0635 -0.15868,0.22216 0.28564,-0.28564 z m -0.19043,0.0952 -0.41258,0.19042 -0.31738,0.63476 0.31738,-0.31738 z m 176.61901,1.11081 -3.96717,0.92039 0.28564,7.2996 4.28455,-1.20603 1.20602,-4.57018 z m -177.95201,0.31737 -0.28564,0.28564 -0.92039,1.23776 0.28564,-0.31737 z m -1.20603,1.52339 0.12695,-0.28564 -0.72995,0.88866 z m -0.603,0.60302 -0.92039,0.92038 -0.12695,0.25389 z m -1.04734,1.17428 -1.11081,1.2695 0.92039,-0.92039 z m -1.11081,1.2695 -0.28563,0.28563 -1.0156,1.33297 0.41259,-0.41258 0.60301,-0.60301 z m -0.88864,1.20602 -1.36471,1.80903 0.72996,-0.88864 z m -1.36471,1.80903 0.22216,-0.44432 -0.69822,0.9204 0.31738,-0.15869 z m -0.47606,0.47608 -0.31737,0.15867 -0.28564,0.60302 z m -0.603,0.76169 -0.60301,0.60301 -0.28564,0.60301 z m -0.88865,1.20602 -0.57127,0.76169 1.39645,-1.74554 z m -0.57127,0.76169 0.31737,-0.47607 -0.98386,1.23777 0.28564,-0.28562 z m -0.66648,0.7617 0.0952,-0.15868 -0.41259,0.47606 0.28564,-0.2539 0.0317,-0.0318 v -0.0317 z m 0.0952,-0.15868 0.88865,-1.07909 0.0952,-0.12693 -0.79343,0.7617 z m 3.33243,-4.25282 0.72996,-0.95212 -0.5078,0.5078 z m 4.91929,-5.90315 0.79344,-0.95212 -0.63475,0.63475 z m 156.783,3.01505 -3.36417,1.52339 2.12641,0.92038 2.15814,-1.52339 z m 84.7071,2.12641 -1.84077,0.63474 1.84077,0.88866 h 1.20602 z m -10.9811,1.23776 -1.84076,0.603 6.09357,3.36416 -1.20602,-2.44377 z m -10.3463,2.1264 -0.63474,1.20603 1.84077,0.31738 z m -18.2807,0.92038 -11.9015,0.92038 0.603,1.5234 8.53736,3.33242 z m -210.229,0.60303 -0.60301,0.88864 0.15868,-0.15869 z m -0.44433,0.72995 -0.22216,0.41258 0.31738,-0.50779 z m -0.22216,0.28564 -0.47606,0.72996 0.22216,-0.22217 0.0635,-0.15868 0.0952,-0.0635 0.0635,-0.0952 -0.0635,0.0318 0.0952,-0.22217 z m -0.63474,0.92038 -0.53954,0.5078 -0.31737,0.60301 -0.12695,0.12694 0.12695,-0.44432 -0.47606,0.79344 0.19042,-0.1587 0.12695,-0.15868 -0.12695,0.44432 z m -1.33298,1.58687 -0.41258,0.44433 -0.31737,0.603 -0.60301,0.603 -0.12695,0.28565 -1.36471,1.80903 -0.0317,0.0317 v 0.0317 l -0.0952,0.15868 -0.19043,0.4126 0.82517,-1.14255 -0.31737,0.34911 0.85691,-1.11081 -0.47606,0.69822 0.31737,-0.28563 0.28563,-0.57127 0.0635,-0.12695 1.17428,-1.45993 0.41259,-0.72995 z m -2.31683,3.23721 -0.53953,0.8569 0.57127,-0.8569 z m 437.88099,-3.39591 1.84076,2.41206 -0.31737,-0.28564 -0.60301,-0.60301 -0.603,-0.31738 v -0.603 z m -174.587,2.72943 -2.1264,1.20601 1.23775,0.63476 z m -264.21399,1.90423 -0.53953,0.53955 -0.28564,0.53954 z m -0.85691,1.14255 -0.53953,0.72997 0.2539,-0.12695 z m -0.28563,0.60302 -0.60301,0.603 0.34911,-0.47605 -0.34911,0.19041 -0.63474,1.23775 0.63474,-0.63474 z m -1.23776,1.55511 -0.28564,0.28565 -0.31738,0.60302 0.31738,-0.31738 z m 290.96799,-2.15813 -8.21999,2.44378 3.04679,2.12641 3.6498,-1.52339 -0.88865,-1.20603 z m -41.73469,0.31738 v 1.52339 l 4.57018,0.88865 h 5.49057 l 0.31737,-1.20603 -1.84076,0.92039 z m -249.868,2.79289 -0.25391,0.2539 -0.22216,0.41258 z m -0.47606,0.66648 -0.60301,0.88865 0.19042,-0.0952 z m -0.60301,0.88865 -0.41259,0.22217 -0.72995,1.42817 z m -1.14254,1.65034 -0.41259,0.60302 0.22216,-0.22217 z m -0.47607,0.69823 -0.31737,0.28562 -0.38085,0.72998 z m -0.69822,1.0156 -0.82517,1.26949 0.28564,-0.15868 z m -0.82517,1.26949 -0.31737,0.15868 -0.60301,1.20603 z m 459.84299,2.41203 0.38086,0.66648 0.12695,0.12696 0.22216,0.41259 0.63475,1.04733 -0.22217,-0.2539 -0.41258,-0.79343 -0.34911,-0.53955 -0.15869,-0.1904 z m 1.5234,2.50726 0.31738,0.50779 -0.0952,-0.0952 -0.22217,-0.41259 z m 3.87193,6.34747 0.0952,0.15869 h -0.0952 z m 0.31738,0.57128 0.0952,0.19042 h -0.0952 z m -358.31499,5.07798 -2.1264,1.52339 1.52339,-0.63475 z m -2.127,1.80903 -3.04679,3.04678 1.80903,-0.603 z m -8.21998,0.92038 -3.04679,0.92038 0.28563,1.5234 z m 0.88864,1.5234 -0.60302,1.20602 1.5234,-0.28564 z m 285.50899,5.17319 -3.04678,1.84077 2.41204,-0.92038 z m -411.95078,30.78526 -0.28563,1.20601 -0.31737,0.92038 h -0.28564 l -0.63474,1.84078 v 0.28563 l -0.60301,2.12641 v -0.60301 l -0.28564,0.92038 -0.31737,1.04733 v -0.12695 l -0.92038,3.04679 0.60301,-1.84076 0.31736,-0.60302 v -0.12694 l 0.60301,-1.39645 v 1.20602 l 0.92038,-1.80903 0.31738,-2.1264 0.28564,-1.23776 v 0.31738 l 0.603,-1.84078 z m -0.28563,7.01396 -0.92039,0.28563 -0.603,1.84077 0.603,-0.31737 z m 517.63701,0 0.31738,0.28563 v 0.92038 z m -517.35101,8.50561 -0.603,0.92038 -0.28563,1.5234 0.88864,-1.20601 z m 359.838,3.04679 0.31738,1.23776 1.80902,0.28564 -1.80902,-1.5234 z m 162.68561,3.96719 0.92039,3.96718 0.34911,1.0156 z m -5.776,9.74339 v 1.52339 l 0.60301,1.23775 z m -101.14701,1.84076 2.72941,0.92038 1.84077,-0.92038 z m -425.63,0.31738 -0.92038,3.93543 -0.31737,1.52339 0.15869,-0.12694 0.15868,-1.07907 0.60301,-2.44378 z m -1.07907,5.33188 -0.15869,1.01559 v -0.2539 l -0.92038,4.57018 v 0.88865 l -0.28563,0.92039 -0.15869,0.85691 0.15869,-0.53954 -0.0952,0.57128 -0.12695,0.38084 0.0635,-0.41258 -0.15869,0.66648 -0.12695,0.98387 0.12695,-0.72997 v 0.2539 l -0.12695,0.47607 0.12695,-0.38085 v 0.31736 l -0.15869,0.28564 -0.0317,0.0952 v 0.0318 l -0.0317,0.22217 -0.0635,0.47605 v 0.41259 l -0.0635,0.22217 v -0.2539 l 0.0635,-0.38086 v -0.50779 l -0.12695,1.26949 -0.0952,0.72996 0.12695,-0.79344 -0.22216,2.44378 v -0.28564 l -0.19043,1.2695 -0.0317,0.12695 -0.0952,0.72996 -0.88865,6.69659 -1.23776,11.2668 v 2.76114 l -0.28562,4.57018 v 0.9204 l -0.31738,3.33242 v 17.6777 l 0.31738,0.60301 v 1.84077 0.9204 l 0.25389,3.26895 0.0317,0.0635 v 0.31737 0.28565 1.23775 l 0.31738,0.60301 0.28564,2.44378 v 0.28563 l -0.28564,-2.41204 -0.31738,-0.63475 v 1.84079 l 0.31738,0.92037 v 3.04679 l 0.28564,0.60301 v 2.44378 l 0.31737,0.60301 v 2.44378 l 0.31737,0.60301 v 2.1264 l 0.88865,6.69659 1.5234,8.53735 1.23776,6.09358 2.12641,9.74338 0.31737,2.44377 1.80903,6.6966 1.84077,5.49056 0.92038,3.36417 1.80903,5.17319 2.44378,7.01396 2.44378,6.37922 3.6498,9.14036 3.6498,8.25173 7.61697,14.9166 2.44378,4.25281 0.31737,0.31739 1.20602,2.44377 7.93435,12.1871 7.2996,10.6638 2.1264,3.04679 0.60301,0.92039 6.41095,7.9026 4.88756,5.80794 1.20602,1.20602 0.31738,0.41259 v 0.19043 h 0.15868 l 0.72996,0.92038 2.44378,2.44378 3.04679,3.33243 0.92039,1.23775 h 0.31736 v 0.28564 l 5.1732,5.20493 h 0.28564 l 0.76169,1.01559 0.57128,0.50781 h 0.12695 l 0.15868,0.25389 -0.28563,-0.25389 h -0.0952 l 0.603,0.603 0.31738,0.28563 -0.34911,-0.47605 0.5078,0.47605 h -0.15869 l 0.28564,0.31738 1.84077,1.84078 -0.79345,-1.07909 0.12695,0.0952 0.0317,0.0318 0.0317,0.0317 0.72996,0.92039 h -0.12694 l 0.38084,0.31736 0.22216,0.28564 h 0.12695 l 1.07907,0.92039 0.92039,0.603 v 0.28564 l 0.92038,0.63476 -0.60301,-0.31739 1.52339,1.20603 1.52339,1.23775 0.92039,0.92038 0.28563,0.28565 0.69822,0.60301 h 0.22216 l 0.15869,0.34911 0.0317,0.0317 1.0156,0.85691 0.92038,0.92038 1.52342,1.20602 0.60301,0.60301 0.60302,0.28564 0.0317,0.0318 1.20603,0.92038 1.5234,1.5234 1.84076,1.52339 1.52339,1.20602 -1.84077,-1.52338 0.60302,0.31736 0.31737,0.28565 1.07907,0.92037 h -0.15869 l 2.25336,1.55514 0.38085,0.31737 0.53953,0.38085 0.15869,0.19042 0.28564,0.15869 h 0.0318 l 0.0635,0.0635 0.85691,0.69823 0.19043,0.12695 0.0317,0.0318 0.69822,0.38085 0.82517,0.603 -0.22215,-0.2539 0.0952,0.0635 0.47607,0.38085 0.12695,0.12694 0.2539,0.22217 -0.72997,-0.53954 0.38085,0.38086 0.44432,0.28564 h 0.0635 l 0.12695,0.12694 -0.19043,-0.12694 h -0.15868 l 0.31737,0.31736 1.5234,0.9204 -0.31738,-0.3174 0.57128,0.2856 0.0635,0.032 0.60301,0.2857 0.28564,0.3174 0.44432,0.44442 1.99946,0.7619 -0.92039,-0.9207 -3.93543,-2.12642 -2.12641,-1.49167 0.28564,0.28564 -0.60301,-0.31737 -0.41258,-0.19042 -0.0635,-0.12696 0.47606,0.31738 -0.47606,-0.34911 -0.0952,-0.19042 0.69822,0.44431 -2.8881,-2.03118 -0.60301,-0.60302 -2.72942,-2.12641 -0.31737,-0.31736 -1.80903,-1.52341 -3.36416,-2.72941 -0.31738,-0.34911 v -0.28562 l -3.33245,-2.72943 -6.09358,-6.09358 -0.92038,-0.60301 -3.64979,-3.04679 -2.44379,-2.76116 -0.603,-0.88863 -4.28455,-4.57019 -1.52339,-2.15814 -1.52339,-1.20601 v -0.60302 l 1.23776,1.20602 -0.60302,-0.92038 -1.84076,-1.80904 0.92038,1.20603 -1.52339,-1.20603 -4.28454,-4.88755 2.15814,1.52339 v -0.92038 l -4.88755,-5.77621 0.60301,0.31738 -2.12641,-2.15815 1.52339,0.63476 0.31738,-0.63476 0.603,-0.88864 -0.31737,-1.84076 -2.44379,-4.5702 -1.80902,-2.1264 -1.52339,-1.23775 -1.52339,-2.72941 c -7.44883,-8.83919 -6.73136,-5.14096 0,-1.52341 l 1.80903,-0.92039 -2.12641,-6.3792 -2.44378,-5.20493 -1.52339,-5.77621 -1.20602,-1.52338 2.1264,1.84076 1.52339,6.98222 -0.28564,-3.93543 -1.5234,-4.88755 -0.92038,-2.72943 v -3.36415 l -2.44378,-5.77621 -2.12641,-3.68154 -0.60301,-3.04679 -0.92038,-0.88864 0.92038,0.28563 -0.31736,-3.33242 0.92038,-3.36417 1.80903,-0.31737 0.63474,-3.93544 2.12641,0.60301 0.28563,-1.84076 0.63474,1.23775 2.12641,0.28563 -0.60301,-2.1264 1.52339,-2.44377 -0.92038,-2.1264 0.28564,-7.2996 V 491.087 l -1.20603,-5.49057 0.31738,-3.04679 -4.28455,-22.5335 0.31737,-1.20601 0.92038,2.1264 0.60302,-1.84078 3.33243,-12.4728 2.44378,-7.61698 -0.28564,-5.80793 -1.84077,-7.90262 -1.20602,-1.84076 -4.28455,-0.60301 -4.25281,-6.09358 -3.96717,-3.96717 h -5.7762 l -3.04679,-2.44378 -2.76115,4.88755 v -3.64978 l 0.60302,-1.23777 -1.20603,0.60301 0.92039,-2.1264 -0.92039,-3.04679 -0.603,2.12639 -0.31738,-2.41202 -0.603,0.88863 0.31737,-1.20602 -0.63474,0.92038 -0.60301,-1.84076 -0.28564,1.23777 -0.31737,-2.15816 -0.31737,1.23777 -1.80903,-2.76116 -0.31738,1.23777 -1.20602,-0.92039 c -4.02641,13.03407 -1.26009,2.40927 -0.60299,-1.5234 l -3.96718,-0.92037 -0.603,4.28453 -0.31738,-2.15814 -0.60301,2.15814 v -2.44377 l -0.603,2.44377 0.603,-4.57017 2.44379,-6.09358 h -0.31738 l 0.31738,-2.44378 -1.52339,-1.84078 -0.31738,-10.3464 -0.31737,-0.60301 -0.28564,1.52338 -0.92038,-4.28455 -2.44378,-4.2528 -4.25281,0.28563 -0.92039,-5.1732 -0.603,2.44379 0.603,-4.57019 -0.31737,-3.04679 -0.60301,-2.44377 v -0.60302 l -0.92038,0.31738 0.63474,-4.28455 -0.31738,-2.12641 -0.603,0.60302 v -0.92038 -1.80903 l 1.20602,-1.84078 -2.1264,0.31738 0.31737,0.92038 -1.23776,2.12642 -0.28564,-2.76116 -0.92038,0.63474 0.60301,-3.36416 -0.28563,-1.04734 -0.0317,0.12695 v -0.28563 -0.63475 l -0.28564,1.23776 -0.0317,0.0318 -0.12695,0.12695 z m 0.44433,-0.76171 0.0317,0.15869 0.28564,-1.07907 h -0.15869 z m 0.15869,-0.92038 0.47605,-2.44377 -0.63474,2.44377 z m 109.97,279.22607 -0.44432,-0.34922 v 0.19052 z m -0.44432,-0.34922 v -0.095 l -0.88864,-0.603 0.88864,0.6983 z m -5.23667,-3.58628 0.0635,0.12695 0.603,0.31737 -0.66648,-0.44432 z m -1.45992,-1.07908 -0.69822,-0.57127 -0.50779,-0.3491 1.80903,1.52338 -0.28564,-0.31738 z m -105.62219,-260.34276 0.0635,-0.66648 -0.15869,0.50779 v 0.92039 l 0.0635,-0.5078 z m 7.522,-9.90204 -0.92038,0.60301 v 1.80903 l -0.60301,1.23777 0.92039,-0.31739 z m 504.244,4.57019 -0.31739,0.28563 -0.28564,0.31738 h 0.28564 l 0.9204,1.20601 -0.60301,-0.60301 v 2.44379 l 0.0635,0.12694 v 0.0317 l 0.53953,5.01451 -0.60301,-0.92038 1.20601,4.34802 v 0.53954 l 0.31738,0.60301 0.92038,4.88755 2.12641,-0.92038 0.92038,-3.96717 -2.1264,-7.01396 -3.36416,-6.37921 z m 23.7715,12.79016 0.60302,1.80904 v -1.20603 z m 2.44379,7.29959 0.88864,4.57019 1.5234,4.57019 0.92038,6.69659 0.92039,2.76115 0.31736,7.01395 0.60302,3.93545 v 1.23776 l 0.28564,11.2668 0.31737,10.3464 -0.31737,2.76116 0.31737,-1.84079 v 1.23777 0.28564 l -0.31737,3.04678 v -0.28563 l -0.0635,0.57127 -0.22216,0.95212 v 0.88864 l -0.31738,2.15815 v 0.88864 l -0.22216,2.31683 0.22216,-1.07907 v -0.31738 l 0.60302,-4.2528 v -0.31738 l 0.31737,-2.72941 v -1.52338 l 0.92038,-12.7902 0.28564,-3.96717 v -0.60301 l -0.28564,1.52341 0.28564,-2.4438 -0.28564,-0.60299 0.28564,-4.5702 -0.28564,-1.52338 v -6.09358 l -0.0635,0.31737 -0.2539,-0.95212 v -0.60302 l -0.92038,-7.01395 v 2.44378 l -0.60302,-5.1732 -0.28564,-1.5234 -1.23775,-4.25281 v -1.52338 l -1.20602,-3.96718 -2.1264,-1.84078 z m 4.63365,65.379 -0.69822,3.49111 0.31738,-0.92038 0.31736,-1.84077 0.0635,-0.72996 z m -310.83704,-56.52395 -2.44379,1.80902 v 0.31737 l 1.20603,0.60301 z m 307.726,4.57017 0.88865,2.1264 -0.60301,-2.1264 z m 1.52354,6.09357 v 0.60302 l 0.28563,1.80904 0.31737,2.15814 v -2.15814 z m 3.04678,0.60302 0.28564,1.80904 v -0.88865 z m 0.28564,1.80904 v 0.63473 l 0.31737,0.88866 z m -525.254,3.36415 -1.52339,0.60301 0.60301,1.23777 z m 217.529,5.49058 1.5234,0.603 -1.5234,0.92039 z m 305.917,0.92037 -0.31736,0.88865 0.31736,2.76115 z m 0.2866,8.50563 v 2.76114 l 0.31738,-1.84077 z m -544.455,2.76114 v 0.60303 l -0.60301,-0.31738 z m 375.35779,11.2668 -0.60302,2.1264 1.5234,1.5234 -0.60302,-2.44379 z m 15.83694,26.81809 -0.60301,1.52339 0.92038,0.92039 z m 24.0887,2.72941 -2.44379,2.1264 -0.31737,4.28455 -2.41204,2.12641 -1.23776,-0.92039 v 3.0468 h -0.92038 l -1.80903,3.6498 0.28563,-1.80904 -2.12641,2.44378 0.60302,1.20603 -1.20602,0.60301 0.31737,-1.80904 -2.15814,1.52339 v 2.12641 l -1.20602,-1.23775 -7.2996,2.15813 -3.04679,6.09359 0.60302,11.2668 -4.88757,5.77621 -1.80903,4.57019 0.60302,11.9015 3.33242,1.80903 8.53736,-2.12641 14.9483,-30.1505 0.88865,-4.57017 1.84077,-1.52339 v -6.09359 l 1.20602,-0.31736 0.63475,2.44377 1.52339,-2.44377 -0.63475,-11.2668 -2.41204,-3.36416 0.60302,-1.5234 z m -19.8041,0.31738 -0.92038,0.60302 1.20602,0.92037 z m 44.1779,36.56151 -1.23776,2.44378 1.52339,-1.23776 z m -7.617,3.96717 -1.52339,0.60302 1.52339,1.52338 z m -377.1986,48.1139 1.52339,2.76115 h -0.603 l 1.20602,3.04679 -1.20602,-2.1264 z m 27.07202,50.90678 h 0.0317 l 0.0952,0.19041 z m 0.95212,1.01559 0.98386,0.88864 -0.98386,-0.79343 v -0.0952 z m 332.1,8.12476 -3.04679,3.33243 1.52339,-0.92039 0.92039,0.92039 -0.31737,-1.20603 1.52339,0.28564 1.23776,-1.20602 -2.76115,0.60301 1.23776,-0.92037 -1.5234,0.63473 z m -308.93199,7.90261 2.12639,1.5234 0.31738,-0.28564 -1.23776,-0.92038 0.92038,0.92038 z m 2.12639,1.5234 0.60302,0.92037 0.92038,0.9204 -0.603,-0.9204 v -0.31735 z m -3.04679,-1.20602 1.84078,1.20602 0.60301,0.92037 0.603,-0.31735 -1.84076,-1.80904 h -0.60301 z m 2.2851,4.53844 0.66649,0.41259 -0.22216,-0.0952 -0.44433,-0.31737 z m 33.0704,3.07852 5.7762,2.44408 -3.36417,-2.15844 z m -24.3743,3.04708 1.52339,1.206 0.88864,0.3174 z m 38.0849,19.8041 0.88865,0.603 0.31737,-0.3173 z m -0.63474,0.2857 1.23776,1.2377 0.28563,0.2857 1.42818,0.8886 0.0952,0.032 2.2851,1.4282 1.68208,0.6982 1.84076,1.2378 2.12641,0.9204 3.04679,1.206 -1.0156,-0.2222 -2.34857,-0.9838 2.03119,0.9204 -0.19041,-0.032 0.63474,0.2221 1.49166,0.6982 h 0.31737 v -0.2856 l 3.04679,1.5234 3.6498,1.5869 0.92039,0.2221 h -0.31738 l 0.92038,0.3809 1.5234,0.2221 0.60301,0.6348 2.44378,0.8886 2.44377,0.6348 2.72943,0.8886 2.1264,0.9204 h 0.31737 l 4.57019,1.5234 h 0.2539 l -0.41259,-0.1269 -0.12695,-0.127 0.66648,0.2539 h 0.53954 l 1.20602,0.603 h 0.60301 l 0.63474,0.3174 0.88866,0.3174 h 0.63474 l 0.60301,0.2856 h 0.60301 l 0.60301,0.3174 0.92038,0.2856 h 0.60302 l 0.60301,0.3174 h 0.63475 l 0.88864,0.3174 0.63475,0.2856 h 0.603 l 0.60302,0.3174 h 0.60301 l 0.92038,0.2856 h 0.60302 l 0.603,0.3174 h 0.63476 l 0.88864,0.3174 0.63475,0.2856 h 0.603 l 0.60302,0.31731 h 0.603 l 0.92039,0.2857 h 0.60301 l 0.60301,0.3174 h 0.63475 l 0.88865,0.3173 h 1.23776 l 0.60301,0.2857 h 0.92038 l 0.60301,0.3174 h 0.60301 l 0.60301,0.2856 h 0.92038 l 0.60302,0.3174 h 1.23776 l 0.92038,0.3173 h 0.60301 l 0.603,0.2857 h 1.5234 l 0.60301,0.3173 h 0.60301 0.63475 l 0.88864,0.2857 h 0.63476 l 0.603,0.3174 h 1.5234 l 0.60301,0.3173 h 1.20602 0.31738 l 0.603,0.2857 h 1.23776 0.88865 l 0.63474,0.3173 h 0.60302 0.60301 l 0.92038,0.2857 h 1.20602 0.92039 l 0.603,0.3174 h 0.31738 1.80903 l 0.63475,0.3173 h 0.28563 2.44378 l 0.60301,0.2857 h 0.60302 2.15814 l 0.88864,0.3173 h 0.31738 2.72941 0.92039 l 0.92038,0.2857 h 2.44378 3.04679 l 0.60301,0.3174 h 0.31737 1.20603 2.44377 2.72942 2.76115 3.04679 2.72941 2.12641 0.60301 l 0.92038,-0.3174 h 0.92039 3.04679 1.52339 0.60301 l 0.60301,-0.2857 h 1.84076 1.5234 0.31738 l 0.88865,-0.3173 h 0.31736 2.44379 0.28564 l 0.63474,-0.2857 h 1.80903 0.31737 l 0.60301,-0.3173 h 2.44378 0.28564 l 0.63475,-0.3174 h 1.20602 0.92038 l 0.60301,-0.2857 h 1.20602 0.31738 l 0.603,-0.3173 h 1.23776 l 0.88865,-0.2857 h 1.23776 0.60301 l 0.60301,-0.3173 h 0.92038 0.603 l 0.60302,-0.3174 h 0.63474 l 0.88865,-0.2857 h 1.23776 l 0.92038,-0.3173 h 0.60302 0.603 l 0.60301,-0.2857 h 0.60301 0.31737 l 0.60302,-0.3173 h 0.603 0.63476 l 0.603,-0.3174 h 0.28564 0.31737 l 0.60302,-0.2856 h 0.31737 0.60301 l 0.60301,-0.3174 h 0.92039 0.31737 l 0.88864,-0.2857 h 0.63476 l 0.603,-0.3173 h 0.28564 0.31738 l 0.603,-0.3174 h 0.31738 0.60301 l 0.603,-0.2857 h 0.31738 0.28564 l 0.63474,-0.31731 h 0.28564 0.31738 l 0.92038,-0.2856 h 0.28563 0.31738 l 0.60302,-0.3174 h 0.603 l 0.60301,-0.3174 h 0.92038 l 1.23776,-0.603 h 0.28564 0.31738 l 0.603,-0.2856 h 0.60301 0.31738 l 0.60301,-0.3174 h 0.60301 l 1.23776,-0.603 h 0.60301 l 0.92038,-0.3174 h 0.60301 l 1.20603,-0.603 h 0.603 l 0.63475,-0.3174 h 0.88864 l 1.23776,-0.603 h 0.60302 l 1.20601,-0.60299 h 0.92039 l 1.23775,-0.603 h 0.60302 l 1.20602,-0.603 0.92039,-0.3174 h 0.603 l 1.23776,-0.603 h 0.60301 l 1.20602,-0.603 0.92038,-0.3174 h 0.60302 l 1.23775,-0.603 h 0.60302 v -0.3174 h 0.603 l 1.20603,-0.603 h 0.63474 l 1.20602,-0.603 h 0.31738 l 1.80903,-0.9204 h 0.60301 l 1.84077,-0.9204 h 0.60301 l 1.23776,-0.603 0.28564,-0.3174 h 0.603 l 2.44378,-1.206 3.36416,-1.206 h -0.31737 l 2.22162,-1.0156 -1.61861,0.6982 5.80794,-2.7294 -2.76115,1.206 0.92038,-0.603 -2.44377,1.206 2.44377,-1.809 -4.85582,2.1264 -2.44378,0.9204 -0.31737,-0.3174 -3.04678,0.603 2.76115,-1.5234 -5.49058,1.2378 1.80904,-1.5234 -2.41204,0.8887 -2.76115,1.8407 -3.33243,0.9204 -1.84077,0.603 h -0.60301 l -0.12695,0.127 -1.1108,0.1904 -4.25281,1.5234 -3.36417,0.603 0.92038,-0.603 -3.64979,0.8886 1.52339,-1.206 -0.92038,-0.603 2.44378,-1.5234 -10.6638,-0.603 h -1.20602 l -2.15814,-0.9204 1.84077,-0.9204 -3.36416,-1.206 -6.37922,1.206 -1.52339,1.5234 -1.5234,-0.9204 -2.1264,0.9204 h 0.88864 l -2.41203,0.9204 -1.5234,-0.9204 -1.52339,0.9204 -10.06079,1.5234 -2.76116,0.9204 -3.33243,1.5234 h -0.31737 l -0.28563,-0.9204 -1.52339,0.2856 -3.04679,-1.809 -1.84078,0.2857 -0.92038,1.2377 h -2.12641 l -0.92038,-0.9204 -3.6498,1.206 -3.36416,0.6348 -5.45884,0.603 -5.49056,-0.603 -0.92038,-0.3174 -3.36417,-0.3174 -3.64979,0.3174 -0.92038,-0.9204 -3.64981,1.2378 H 384.005 l -0.92039,0.603 -9.74338,-0.603 -2.44377,-1.8408 h -1.80903 l 1.80903,1.206 -1.20602,0.6348 -0.60301,0.2856 -7.33134,0.603 -2.1264,-0.2856 -2.44379,1.5234 0.63476,0.9204 h -2.76116 l -1.20601,0.8886 h -2.12641 l 1.52339,1.2378 0.28564,0.2856 -0.92038,2.1581 1.52338,0.8887 0.63476,1.2377 h -1.23776 l 1.52339,0.9204 -2.91984,-0.2539 -0.12695,-0.064 h -0.60301 l -0.92038,-0.3173 0.60301,0.3173 -1.52339,-0.3173 0.63474,0.6347 -15.5831,-2.6342 h -0.0635 l -0.22216,-0.1269 h -0.44432 l -0.22217,-0.032 h -0.0317 l -0.50779,-0.2539 h -0.92038 l -2.12641,-0.6348 -6.69659,-2.1264 h -0.31737 l -2.1264,-0.9203 -11.2668,-3.6499 -1.23776,-0.2856 -2.1264,-0.9204 -0.60301,-0.3174 h -0.12695 l -0.88864,-0.3808 -0.19043,-0.2222 h -0.28564 l -0.57127,-0.2539 -0.0635,-0.063 h -0.0953 l -2.03119,-0.8886 h -0.63475 l -11.2668,-5.2049 -5.39535,-2.6977 1.74555,0.5713 -0.60301,-0.6031 -1.84077,-0.603 0.57128,0.5713 -0.57128,-0.2856 -0.60301,-0.8887 -1.84076,-0.6347 z m 40.3065,17.6777 h -0.12695 l 0.95212,0.3173 z m -15.0118,-4.8559 -1.20602,-0.6347 h -0.31737 z m -3.6498,-1.4599 h -0.0952 l 0.41259,0.1587 z m 0.31737,0.1587 0.88866,0.3809 0.15867,0.032 -1.04733,-0.4126 z m -0.41258,-0.1587 -1.74555,-0.6982 1.52339,0.6347 0.22216,0.063 z m -18.5981,-8.9499 -2.03119,-0.8887 0.60301,0.3174 z m -1.42818,-0.2539 1.84077,0.8886 v -0.2856 z m 35.0381,14.3136 2.15814,0.603 0.60301,0.2222 z" />
  </g>
</svg>
